<svg width="48" height="10" viewBox="0 0 48 10" fill="none" xmlns="http://www.w3.org/2000/svg">
<path d="M3.11279 4.3584L4.4458 1.90723H6.13037L4.06006 5.43262L6.18408 9.0166H4.47998L3.11279 6.52637L1.74561 9.0166H0.0415039L2.16553 5.43262L0.0952148 1.90723H1.77979L3.11279 4.3584ZM9.13818 9.11426C8.36344 9.11426 7.73193 8.87663 7.24365 8.40137C6.75863 7.92611 6.51611 7.29297 6.51611 6.50195V6.36523C6.51611 5.83464 6.61865 5.361 6.82373 4.94434C7.02881 4.52441 7.31852 4.20215 7.69287 3.97754C8.07048 3.74967 8.50016 3.63574 8.98193 3.63574C9.70459 3.63574 10.2726 3.86361 10.686 4.31934C11.1027 4.77507 11.311 5.42122 11.311 6.25781V6.83398H7.94678C7.99235 7.17904 8.12907 7.45573 8.35693 7.66406C8.58805 7.8724 8.87939 7.97656 9.23096 7.97656C9.77458 7.97656 10.1994 7.77962 10.5054 7.38574L11.1987 8.16211C10.9871 8.46159 10.7007 8.69596 10.3394 8.86523C9.97803 9.03125 9.57764 9.11426 9.13818 9.11426ZM8.97705 4.77832C8.6971 4.77832 8.46924 4.87272 8.29346 5.06152C8.12093 5.25033 8.01025 5.52051 7.96143 5.87207H9.92432V5.75977C9.91781 5.44727 9.83317 5.20638 9.67041 5.03711C9.50765 4.86458 9.27653 4.77832 8.97705 4.77832ZM13.4399 3.7334L13.4839 4.32422C13.8582 3.86523 14.3644 3.63574 15.0024 3.63574C15.6828 3.63574 16.1499 3.9043 16.4038 4.44141C16.7749 3.9043 17.3039 3.63574 17.9907 3.63574C18.5636 3.63574 18.9901 3.80339 19.27 4.13867C19.55 4.4707 19.6899 4.97201 19.6899 5.64258V9.0166H18.2739V5.64746C18.2739 5.34798 18.2153 5.12988 18.0981 4.99316C17.981 4.85319 17.7743 4.7832 17.478 4.7832C17.0549 4.7832 16.7619 4.98503 16.5991 5.38867L16.604 9.0166H15.1929V5.65234C15.1929 5.34635 15.1326 5.125 15.0122 4.98828C14.8918 4.85156 14.6867 4.7832 14.397 4.7832C13.9966 4.7832 13.7069 4.94922 13.5278 5.28125V9.0166H12.1167V3.7334H13.4399ZM24.9585 2.43457V3.7334H25.8618V4.76855H24.9585V7.40527C24.9585 7.60059 24.9959 7.74056 25.0708 7.8252C25.1457 7.90983 25.2889 7.95215 25.5005 7.95215C25.6567 7.95215 25.7951 7.94076 25.9155 7.91797V8.9873C25.6388 9.07194 25.354 9.11426 25.061 9.11426C24.0715 9.11426 23.5669 8.61458 23.5474 7.61523V4.76855H22.7759V3.7334H23.5474V2.43457H24.9585ZM29.7095 9.0166C29.6444 8.88965 29.5972 8.73177 29.5679 8.54297C29.2261 8.92383 28.7817 9.11426 28.2349 9.11426C27.7173 9.11426 27.2876 8.96452 26.9458 8.66504C26.6073 8.36556 26.438 7.98796 26.438 7.53223C26.438 6.97233 26.6447 6.54264 27.0581 6.24316C27.4748 5.94368 28.0754 5.79232 28.8599 5.78906H29.5093V5.48633C29.5093 5.24219 29.4458 5.04688 29.3188 4.90039C29.1951 4.75391 28.9982 4.68066 28.728 4.68066C28.4904 4.68066 28.3032 4.73763 28.1665 4.85156C28.033 4.96549 27.9663 5.12174 27.9663 5.32031H26.5552C26.5552 5.01432 26.6496 4.73112 26.8384 4.4707C27.0272 4.21029 27.2941 4.00684 27.6392 3.86035C27.9842 3.71061 28.3716 3.63574 28.8013 3.63574C29.4523 3.63574 29.9683 3.80013 30.3491 4.12891C30.7332 4.45443 30.9253 4.91341 30.9253 5.50586V7.7959C30.9285 8.2972 30.9985 8.67643 31.1353 8.93359V9.0166H29.7095ZM28.5425 8.03516C28.7508 8.03516 28.9429 7.98958 29.1187 7.89844C29.2944 7.80404 29.4246 7.67871 29.5093 7.52246V6.61426H28.9819C28.2756 6.61426 27.8996 6.8584 27.854 7.34668L27.8491 7.42969C27.8491 7.60547 27.911 7.75033 28.0347 7.86426C28.1584 7.97819 28.3276 8.03516 28.5425 8.03516ZM28.3911 1.90723H29.187L30.5786 3.03027H29.5239L28.7866 2.41504L28.0493 3.03027H26.9995L28.3911 1.90723ZM31.0132 1.04785H32.1411L31.0327 2.37598H30.2173L31.0132 1.04785ZM33.6987 2.43457V3.7334H34.6021V4.76855H33.6987V7.40527C33.6987 7.60059 33.7362 7.74056 33.811 7.8252C33.8859 7.90983 34.0291 7.95215 34.2407 7.95215C34.397 7.95215 34.5353 7.94076 34.6558 7.91797V8.9873C34.3791 9.07194 34.0942 9.11426 33.8013 9.11426C32.8117 9.11426 32.3071 8.61458 32.2876 7.61523V4.76855H31.5161V3.7334H32.2876V2.43457H33.6987ZM40.0757 7.97656C40.3361 7.97656 40.5477 7.90495 40.7104 7.76172C40.8732 7.61849 40.9578 7.42806 40.9644 7.19043H42.2876C42.2843 7.5485 42.1867 7.87728 41.9946 8.17676C41.8026 8.47298 41.5389 8.7041 41.2036 8.87012C40.8716 9.03288 40.5037 9.11426 40.1001 9.11426C39.3449 9.11426 38.7492 8.875 38.313 8.39648C37.8768 7.91471 37.6587 7.25065 37.6587 6.4043V6.31152C37.6587 5.49772 37.8752 4.84831 38.3081 4.36328C38.741 3.87826 39.3351 3.63574 40.0903 3.63574C40.7511 3.63574 41.2801 3.82454 41.6772 4.20215C42.0776 4.5765 42.2811 5.07617 42.2876 5.70117H40.9644C40.9578 5.42773 40.8732 5.20638 40.7104 5.03711C40.5477 4.86458 40.3328 4.77832 40.0659 4.77832C39.7371 4.77832 39.4881 4.89876 39.3188 5.13965C39.1528 5.37728 39.0698 5.76465 39.0698 6.30176V6.44824C39.0698 6.99186 39.1528 7.38249 39.3188 7.62012C39.4849 7.85775 39.7371 7.97656 40.0757 7.97656ZM46.1548 9.0166C46.0897 8.88965 46.0425 8.73177 46.0132 8.54297C45.6714 8.92383 45.2271 9.11426 44.6802 9.11426C44.1626 9.11426 43.7329 8.96452 43.3911 8.66504C43.0526 8.36556 42.8833 7.98796 42.8833 7.53223C42.8833 6.97233 43.09 6.54264 43.5034 6.24316C43.9201 5.94368 44.5207 5.79232 45.3052 5.78906H45.9546V5.48633C45.9546 5.24219 45.8911 5.04688 45.7642 4.90039C45.6405 4.75391 45.4435 4.68066 45.1733 4.68066C44.9357 4.68066 44.7485 4.73763 44.6118 4.85156C44.4784 4.96549 44.4116 5.12174 44.4116 5.32031H43.0005C43.0005 5.01432 43.0949 4.73112 43.2837 4.4707C43.4725 4.21029 43.7394 4.00684 44.0845 3.86035C44.4295 3.71061 44.8169 3.63574 45.2466 3.63574C45.8976 3.63574 46.4136 3.80013 46.7944 4.12891C47.1785 4.45443 47.3706 4.91341 47.3706 5.50586V7.7959C47.3739 8.2972 47.4438 8.67643 47.5806 8.93359V9.0166H46.1548ZM44.9878 8.03516C45.1961 8.03516 45.3882 7.98958 45.564 7.89844C45.7397 7.80404 45.87 7.67871 45.9546 7.52246V6.61426H45.4272C44.7209 6.61426 44.3449 6.8584 44.2993 7.34668L44.2944 7.42969C44.2944 7.60547 44.3563 7.75033 44.48 7.86426C44.6037 7.97819 44.7729 8.03516 44.9878 8.03516ZM44.7095 2.83496L44.6362 2.18066C44.8739 2.16764 45.0448 2.13835 45.1489 2.09277C45.2563 2.04395 45.3101 1.96745 45.3101 1.86328C45.3101 1.63867 45.0789 1.52637 44.6167 1.52637L44.6509 0.867188C45.2629 0.867188 45.7235 0.951823 46.0327 1.12109C46.3452 1.29036 46.5015 1.52311 46.5015 1.81934C46.5015 2.01139 46.4347 2.16927 46.3013 2.29297C46.1678 2.41341 45.9904 2.48991 45.769 2.52246V2.83496H44.7095Z" fill="black"/>
</svg>
