<svg width="121" height="18" viewBox="0 0 121 18" fill="none" xmlns="http://www.w3.org/2000/svg">
<path d="M0.807922 17.4795H6.73889C7.52075 17.4869 8.27655 17.4013 9.00629 17.2226C9.73602 17.0364 10.3876 16.746 10.9609 16.3514C11.5269 15.9567 11.9922 15.4504 12.3571 14.8323C12.722 14.2143 12.9342 13.4771 12.9938 12.6208C13.0161 12.2485 12.9938 11.8836 12.9268 11.5262C12.8597 11.1613 12.7443 10.8262 12.5805 10.5209C12.4167 10.2156 12.2007 9.94385 11.9327 9.70557C11.6721 9.46729 11.3556 9.28113 10.9833 9.14709C11.3779 8.98328 11.7428 8.78967 12.0779 8.56628C12.4204 8.33545 12.722 8.07483 12.9826 7.78442C13.2358 7.49402 13.4406 7.16638 13.5969 6.80151C13.7533 6.4292 13.8501 6.01965 13.8873 5.57288C13.9469 4.79102 13.8427 4.1283 13.5746 3.58472C13.3065 3.04114 12.9305 2.59436 12.4465 2.24438C11.9625 1.90186 11.4003 1.6524 10.7599 1.49603C10.1195 1.33221 9.45679 1.24286 8.77173 1.22797L3.63379 1.2168L0.807922 17.4795ZM5.13049 10.3087L8.11273 10.3199C8.4776 10.3348 8.79034 10.4018 9.05096 10.5209C9.31158 10.6326 9.52008 10.7927 9.67645 11.0012C9.81793 11.1948 9.91473 11.4294 9.96686 11.7049C10.019 11.973 10.019 12.2745 9.96686 12.6096C9.90729 13.0043 9.78442 13.3468 9.59827 13.6372C9.41211 13.9276 9.18127 14.1696 8.90576 14.3632C8.6228 14.5643 8.30634 14.7132 7.95636 14.81C7.61383 14.9068 7.25641 14.9589 6.88409 14.9664L4.32629 14.944L5.13049 10.3087ZM5.52142 8.04132L6.26978 3.7746L8.66003 3.78577C8.99512 3.79321 9.30414 3.83789 9.5871 3.9198C9.87006 3.99426 10.1083 4.10968 10.3019 4.26605C10.4955 4.42987 10.637 4.64209 10.7264 4.90271C10.8157 5.15588 10.8344 5.46863 10.7822 5.84094C10.7227 6.24304 10.5961 6.58557 10.4025 6.86853C10.2089 7.14404 9.97058 7.37115 9.68762 7.54987C9.39722 7.72858 9.07703 7.85889 8.72705 7.9408C8.37708 8.02271 8.01965 8.06366 7.65479 8.06366L5.52142 8.04132ZM17.752 1.2168L17.3052 3.75226H20.3098L18.3663 14.9552H15.3729L14.9261 17.4795H24.0739L24.5206 14.9552H21.4379L23.3813 3.75226H26.4529L26.8997 1.2168H17.752ZM38.9739 15.5919L39.9791 9.16943H34.3162L33.903 11.515H36.5278L35.9581 14.4749C35.623 14.7355 35.2433 14.9217 34.8188 15.0334C34.3944 15.1376 33.9737 15.1823 33.5567 15.1674C33.162 15.1525 32.8307 15.0669 32.5626 14.9105C32.302 14.7542 32.0935 14.5457 31.9371 14.285C31.7733 14.0319 31.6542 13.7452 31.5797 13.425C31.5052 13.1048 31.4606 12.7697 31.4457 12.4197C31.4233 12.0772 31.4233 11.7384 31.4457 11.4033C31.4755 11.0682 31.509 10.7592 31.5462 10.4763L31.8701 8.2312C31.9148 7.91846 31.9781 7.58337 32.06 7.22595C32.1494 6.86853 32.2648 6.51111 32.4062 6.15369C32.5403 5.80371 32.7004 5.46863 32.8865 5.14844C33.0727 4.8208 33.2924 4.53412 33.5455 4.28839C33.7987 4.04266 34.0817 3.84906 34.3944 3.70758C34.7146 3.5661 35.072 3.50281 35.4667 3.5177C35.8613 3.53259 36.189 3.60706 36.4496 3.74109C36.7177 3.86768 36.9336 4.04266 37.0974 4.26605C37.2612 4.48944 37.3804 4.75378 37.4548 5.05908C37.5293 5.36438 37.574 5.69574 37.5889 6.05316H40.5599C40.5227 5.28619 40.3924 4.59369 40.169 3.97565C39.9531 3.35016 39.644 2.81775 39.2419 2.37842C38.8324 1.94653 38.326 1.61145 37.7229 1.37317C37.1272 1.13489 36.431 1.0083 35.6342 0.993408C34.9566 0.985962 34.3274 1.07532 33.7466 1.26147C33.1732 1.44763 32.6483 1.70825 32.1717 2.04333C31.6951 2.38586 31.267 2.79169 30.8872 3.2608C30.5074 3.72247 30.1798 4.22137 29.9043 4.75751C29.6213 5.30109 29.3868 5.87073 29.2006 6.46643C29.0145 7.06213 28.8767 7.65784 28.7874 8.25354L28.4634 10.4651C28.389 11.0459 28.3629 11.6267 28.3853 12.2075C28.4076 12.7809 28.4858 13.3319 28.6198 13.8606C28.7464 14.3893 28.9326 14.8845 29.1783 15.3461C29.4315 15.8078 29.7479 16.2099 30.1277 16.5524C30.5 16.895 30.9431 17.1705 31.4568 17.379C31.9781 17.58 32.5738 17.688 33.244 17.7029C34.2269 17.7178 35.247 17.5651 36.3044 17.2449C37.3692 16.9247 38.259 16.3737 38.9739 15.5919ZM63.5243 13.1569C63.4722 13.5143 63.353 13.8234 63.1669 14.084C62.9807 14.3372 62.7536 14.5457 62.4855 14.7095C62.2175 14.8807 61.9196 15.0073 61.592 15.0892C61.2718 15.1637 60.9479 15.2009 60.6202 15.2009C60.1735 15.1935 59.7788 15.1302 59.4363 15.011C59.0938 14.8845 58.8145 14.7057 58.5986 14.4749C58.3752 14.2366 58.2076 13.9462 58.0959 13.6037C57.9843 13.2612 57.9359 12.8702 57.9507 12.4309L54.9573 12.4197C54.935 13.2388 55.0579 13.9723 55.3259 14.6201C55.6014 15.2605 55.9886 15.8078 56.4875 16.262C56.9865 16.7162 57.5747 17.0662 58.2523 17.312C58.9299 17.5502 59.6597 17.6768 60.4415 17.6917C61.1713 17.7066 61.8973 17.6284 62.6196 17.4572C63.3493 17.2784 63.9934 16.9806 64.5519 16.5636C65.088 16.1689 65.5385 15.6961 65.9034 15.1451C66.2682 14.5866 66.4767 13.9164 66.5289 13.1346C66.5735 12.457 66.4842 11.8464 66.2608 11.3028C66.0449 10.7518 65.7396 10.2678 65.3449 9.85077C64.9428 9.43378 64.4737 9.07635 63.9376 8.7785C63.4014 8.47321 62.8392 8.22003 62.251 8.01898C61.9755 7.92963 61.6702 7.82538 61.3351 7.70624C61 7.57965 60.691 7.42328 60.408 7.23712C60.1176 7.05841 59.8868 6.83875 59.7155 6.57812C59.5443 6.31006 59.481 5.98615 59.5256 5.60638C59.5703 5.24896 59.6857 4.93994 59.8719 4.67932C60.058 4.41125 60.2852 4.18787 60.5532 4.00916C60.8213 3.83789 61.1154 3.7113 61.4356 3.62939C61.7632 3.54004 62.0909 3.49908 62.4185 3.50653C62.8057 3.51398 63.1408 3.57727 63.4238 3.69641C63.7142 3.81555 63.9562 3.98309 64.1498 4.19904C64.3359 4.41498 64.4737 4.6756 64.563 4.9809C64.6599 5.28619 64.7045 5.62128 64.6971 5.98615L67.6682 5.99731C67.6905 5.23779 67.5788 4.55273 67.3331 3.94214C67.0948 3.33154 66.7523 2.8103 66.3055 2.37842C65.8587 1.94653 65.3226 1.61145 64.6971 1.37317C64.0716 1.13489 63.3903 1.0083 62.6531 0.993408C61.9457 0.978516 61.2383 1.06415 60.5309 1.25031C59.8309 1.43646 59.1943 1.72314 58.6209 2.11035C58.0475 2.49756 57.571 2.98157 57.1912 3.56238C56.8115 4.14319 56.5992 4.8208 56.5546 5.59521C56.5099 6.28772 56.6104 6.90576 56.8561 7.44934C57.1093 7.98547 57.4518 8.45459 57.8837 8.85669C58.3156 9.25879 58.8108 9.60504 59.3693 9.89545C59.9352 10.1784 60.5085 10.413 61.0894 10.5991C61.3947 10.7034 61.7037 10.8225 62.0164 10.9565C62.3292 11.0906 62.6084 11.2544 62.8541 11.448C63.0924 11.649 63.2748 11.8873 63.4014 12.1628C63.5355 12.4384 63.5764 12.7697 63.5243 13.1569ZM80.2114 10.5321L80.58 8.17535C80.6545 7.60944 80.6768 7.03979 80.647 6.46643C80.6172 5.89307 80.5353 5.34204 80.4013 4.81335C80.2598 4.29211 80.0625 3.80438 79.8093 3.35016C79.5562 2.88849 79.2397 2.48267 78.8599 2.13269C78.4727 1.79016 78.0222 1.51837 77.5084 1.31732C77.0021 1.11627 76.4213 1.0083 75.766 0.993408C75.0884 0.978516 74.4629 1.06415 73.8895 1.25031C73.3162 1.42902 72.7949 1.68219 72.3258 2.00983C71.8567 2.34491 71.436 2.74329 71.0637 3.20496C70.6913 3.66663 70.3712 4.16553 70.1031 4.70166C69.8276 5.23779 69.5967 5.80371 69.4106 6.39941C69.2319 6.98767 69.0978 7.57965 69.0085 8.17535L68.6399 10.5433C68.5654 11.1017 68.5394 11.6639 68.5617 12.2299C68.584 12.7958 68.6585 13.3394 68.7851 13.8606C68.9117 14.3893 69.0941 14.8845 69.3324 15.3461C69.5707 15.8004 69.876 16.1987 70.2483 16.5413C70.6132 16.8912 71.045 17.1705 71.5439 17.379C72.0503 17.58 72.6274 17.688 73.2752 17.7029C73.9603 17.7178 74.5932 17.6359 75.174 17.4572C75.7548 17.2784 76.2872 17.0253 76.7712 16.6976C77.2552 16.37 77.6871 15.9791 78.0669 15.5248C78.4541 15.0632 78.7929 14.5643 79.0833 14.0281C79.3663 13.492 79.6008 12.9261 79.787 12.3304C79.9731 11.7347 80.1146 11.1353 80.2114 10.5321ZM77.4749 8.14185L77.1063 10.5433C77.0542 10.8635 76.9872 11.2023 76.9053 11.5597C76.8234 11.9171 76.7191 12.2671 76.5925 12.6096C76.4585 12.9596 76.2984 13.291 76.1122 13.6037C75.9261 13.9164 75.7101 14.1882 75.4644 14.4191C75.2112 14.6499 74.9246 14.8323 74.6044 14.9664C74.2842 15.093 73.923 15.1488 73.5209 15.1339C73.1412 15.119 72.8284 15.0334 72.5827 14.877C72.3444 14.7132 72.1545 14.5047 72.0131 14.2515C71.8716 13.9984 71.7711 13.7117 71.7115 13.3915C71.6519 13.0713 71.6221 12.7437 71.6221 12.4086C71.6147 12.0735 71.6221 11.7458 71.6445 11.4257C71.6743 11.1055 71.7078 10.8151 71.745 10.5544L72.1136 8.15302C72.1583 7.83282 72.2178 7.49774 72.2923 7.14777C72.3668 6.79034 72.4636 6.44037 72.5827 6.09784C72.6944 5.75531 72.8359 5.4314 73.0071 5.1261C73.1784 4.81335 73.3832 4.53784 73.6215 4.29956C73.8523 4.06873 74.1241 3.89001 74.4368 3.76343C74.7496 3.62939 75.1107 3.56982 75.5203 3.58472C75.9 3.59961 76.2165 3.68524 76.4697 3.84161C76.7228 3.99799 76.9276 4.19904 77.084 4.44476C77.2404 4.69049 77.3558 4.96973 77.4302 5.28247C77.5047 5.59521 77.5531 5.91541 77.5754 6.24304C77.5903 6.57812 77.5866 6.90948 77.5643 7.23712C77.5419 7.56476 77.5121 7.86633 77.4749 8.14185ZM94.7317 1.2168H91.6936L89.8506 12.0065C89.7911 12.3937 89.6943 12.7809 89.5602 13.1681C89.4262 13.5553 89.2475 13.9016 89.0241 14.2068C88.7933 14.5121 88.5103 14.7579 88.1752 14.944C87.8401 15.1227 87.4418 15.2009 86.9801 15.1786C86.5631 15.1562 86.2392 15.0408 86.0084 14.8323C85.785 14.6164 85.6249 14.3521 85.5281 14.0393C85.4238 13.7266 85.368 13.3915 85.3605 13.0341C85.3605 12.6692 85.3792 12.3267 85.4164 12.0065L87.2258 1.2168H84.1654L82.3224 12.0065C82.2331 12.766 82.2592 13.4883 82.4006 14.1733C82.5421 14.8584 82.7953 15.4578 83.1602 15.9716C83.525 16.4929 84.0016 16.9099 84.5898 17.2226C85.1855 17.5279 85.8929 17.688 86.712 17.7029C87.5981 17.7252 88.3949 17.5986 89.1023 17.3231C89.8171 17.0402 90.4352 16.6418 90.9564 16.128C91.4777 15.6216 91.9021 15.0148 92.2297 14.3074C92.5574 13.6 92.7845 12.8256 92.9111 11.9841L94.7317 1.2168ZM105.231 17.4795L108.057 1.2168H104.985L103.131 11.7719L100.573 1.2168H97.5464L94.7317 17.4795H97.8145L99.6574 6.8797L102.249 17.4795H105.231ZM108.18 17.4795H112.58C113.288 17.4869 113.958 17.405 114.591 17.2338C115.224 17.0625 115.808 16.8205 116.345 16.5078C116.933 16.1801 117.469 15.7743 117.953 15.2903C118.444 14.7988 118.869 14.2515 119.226 13.6484C119.546 13.1197 119.815 12.55 120.03 11.9395C120.246 11.3214 120.403 10.6848 120.5 10.0295L120.689 8.68915C120.771 7.9892 120.775 7.31158 120.701 6.65631C120.634 5.99359 120.488 5.37927 120.265 4.81335C120.079 4.32935 119.829 3.88257 119.517 3.47302C119.211 3.06348 118.865 2.70233 118.478 2.38959C118.016 2.03961 117.488 1.7641 116.892 1.56305C116.304 1.35455 115.648 1.24286 114.926 1.22797L110.994 1.2168L108.18 17.4795ZM113.642 3.76343L114.803 3.7746C115.242 3.79694 115.622 3.88257 115.942 4.03149C116.263 4.17297 116.534 4.36285 116.758 4.60114C116.974 4.84686 117.145 5.12982 117.272 5.45001C117.406 5.76276 117.502 6.09784 117.562 6.45526C117.614 6.81268 117.636 7.18127 117.629 7.56104C117.629 7.93335 117.607 8.29822 117.562 8.65564L117.372 10.0295C117.313 10.439 117.223 10.8448 117.104 11.2469C116.992 11.649 116.843 12.0251 116.657 12.3751C116.389 12.8814 116.095 13.3096 115.775 13.6595C115.455 14.0095 115.075 14.2999 114.636 14.5308C114.368 14.6722 114.07 14.7839 113.742 14.8658C113.422 14.9403 113.079 14.9775 112.714 14.9775L111.698 14.9552L113.642 3.76343Z" fill="white"/>
<path d="M0.807922 17.4795L-0.444149 17.2619L-0.702779 18.7503H0.807922V17.4795ZM6.73889 17.4795L6.75099 16.2087H6.73889V17.4795ZM9.00629 17.2226L9.30859 18.457L9.32042 18.454L9.00629 17.2226ZM10.9609 16.3514L11.6815 17.3982L11.6879 17.3938L10.9609 16.3514ZM12.9938 12.6208L14.2616 12.709L14.2623 12.6969L12.9938 12.6208ZM12.9268 11.5262L11.6768 11.7558L11.6777 11.7604L12.9268 11.5262ZM11.9327 9.70557L11.0752 10.6435L11.0817 10.6495L11.0884 10.6554L11.9327 9.70557ZM10.9833 9.14709L10.4961 7.97336L7.46545 9.23135L10.5528 10.3428L10.9833 9.14709ZM12.0779 8.56628L12.7828 9.62369L12.7881 9.62014L12.0779 8.56628ZM12.9826 7.78442L13.9284 8.63323L13.9345 8.62642L13.9405 8.61953L12.9826 7.78442ZM13.5969 6.80151L14.765 7.30213L14.7686 7.29362L13.5969 6.80151ZM13.8873 5.57288L15.1538 5.67842L15.1545 5.66942L13.8873 5.57288ZM12.4465 2.24438L13.1912 1.21451L13.1806 1.20704L12.4465 2.24438ZM10.7599 1.49603L10.4449 2.72729L10.4584 2.73059L10.7599 1.49603ZM8.77173 1.22797L8.79935 -0.0425669L8.78692 -0.042837L8.77449 -0.0428641L8.77173 1.22797ZM3.63379 1.2168L3.63655 -0.0540335L2.56514 -0.0563626L2.38172 0.999232L3.63379 1.2168ZM5.13049 10.3087L5.13525 9.03789L4.06185 9.03387L3.87836 10.0915L5.13049 10.3087ZM8.11273 10.3199L8.16456 9.05011L8.14104 9.04915L8.11749 9.04906L8.11273 10.3199ZM9.05096 10.5209L8.5226 11.6767L8.53641 11.683L8.55036 11.689L9.05096 10.5209ZM9.67645 11.0012L10.7025 10.2514L10.6979 10.245L10.6931 10.2387L9.67645 11.0012ZM9.96686 11.7049L8.71816 11.9411L8.71939 11.9475L9.96686 11.7049ZM9.96686 12.6096L8.71111 12.4143L8.71026 12.4199L9.96686 12.6096ZM8.90576 14.3632L8.17509 13.3234L8.16969 13.3273L8.90576 14.3632ZM7.95636 14.81L7.61757 13.5851L7.61075 13.5871L7.95636 14.81ZM6.88409 14.9664L6.873 16.2372L6.89125 16.2373L6.90951 16.2369L6.88409 14.9664ZM4.32629 14.944L3.07417 14.7268L2.81827 16.2017L4.3152 16.2148L4.32629 14.944ZM5.52142 8.04132L4.2697 7.82178L4.01106 9.29641L5.50812 9.31208L5.52142 8.04132ZM6.26978 3.7746L6.27571 2.50378L5.20331 2.49877L5.01805 3.55505L6.26978 3.7746ZM8.66003 3.78577L8.68827 2.51525L8.67712 2.515L8.66597 2.51495L8.66003 3.78577ZM9.5871 3.9198L9.23373 5.14052L9.24865 5.14484L9.26368 5.14879L9.5871 3.9198ZM10.3019 4.26605L11.1228 3.29592L11.1117 3.28654L11.1005 3.27742L10.3019 4.26605ZM10.7264 4.90271L9.52419 5.31489L9.528 5.32567L10.7264 4.90271ZM10.7822 5.84094L12.0394 6.02719L12.0408 6.01714L10.7822 5.84094ZM10.4025 6.86853L11.4423 7.59919L11.4468 7.5927L11.4513 7.58615L10.4025 6.86853ZM9.68762 7.54987L10.3537 8.63218L10.36 8.6283L10.3662 8.62434L9.68762 7.54987ZM7.65479 8.06366L7.64148 9.33449H7.65479V8.06366ZM0.807922 18.7503H6.73889V16.2087H0.807922V18.7503ZM6.72679 18.7503C7.61024 18.7587 8.47186 18.6619 9.30858 18.457L8.704 15.9882C8.08124 16.1407 7.43127 16.2152 6.75099 16.2087L6.72679 18.7503ZM9.32042 18.454C10.1835 18.2338 10.9748 17.8846 11.6815 17.3982L10.2404 15.3046C9.80031 15.6075 9.28854 15.8391 8.69215 15.9912L9.32042 18.454ZM11.6879 17.3938C12.4093 16.8907 12.9978 16.2469 13.4515 15.4784L11.2628 14.1863C10.9867 14.6539 10.6444 15.0228 10.234 15.309L11.6879 17.3938ZM13.4515 15.4784C13.9345 14.6602 14.1909 13.724 14.2615 12.709L11.726 12.5326C11.6775 13.2303 11.5095 13.7684 11.2628 14.1863L13.4515 15.4784ZM14.2623 12.6969C14.2907 12.2234 14.2625 11.7543 14.1758 11.292L11.6777 11.7604C11.725 12.013 11.7415 12.2735 11.7252 12.5447L14.2623 12.6969ZM14.1767 11.2966C14.0875 10.8111 13.9308 10.3496 13.7003 9.92006L11.4607 11.1218C11.5579 11.3029 11.632 11.5115 11.6768 11.7558L14.1767 11.2966ZM13.7003 9.92006C13.4634 9.47854 13.1527 9.0897 12.777 8.75573L11.0884 10.6554C11.2488 10.798 11.37 10.9527 11.4607 11.1218L13.7003 9.92006ZM12.7902 8.76765C12.3916 8.40318 11.925 8.13544 11.4137 7.95138L10.5528 10.3428C10.7862 10.4268 10.9526 10.5314 11.0752 10.6435L12.7902 8.76765ZM11.4705 10.3208C11.9367 10.1273 12.3751 9.89551 12.7828 9.62368L11.3729 7.50889C11.1105 7.68384 10.8192 7.83925 10.4961 7.97336L11.4705 10.3208ZM12.7881 9.62014C13.2122 9.33431 13.594 9.00582 13.9284 8.63323L12.0368 6.93562C11.8499 7.14384 11.6286 7.33659 11.3677 7.51242L12.7881 9.62014ZM13.9405 8.61953C14.2834 8.22624 14.558 7.78503 14.765 7.30212L12.4288 6.30091C12.3231 6.54774 12.1882 6.76179 12.0247 6.94931L13.9405 8.61953ZM14.7686 7.29362C14.982 6.78547 15.1067 6.2437 15.1538 5.67841L12.6209 5.46734C12.5935 5.79561 12.5246 6.07293 12.4252 6.30941L14.7686 7.29362ZM15.1545 5.66942C15.2264 4.72585 15.1086 3.82203 14.7144 3.02264L12.4348 4.1468C12.5767 4.43456 12.6674 4.85618 12.6202 5.47633L15.1545 5.66942ZM14.7144 3.02264C14.3561 2.29612 13.8455 1.68777 13.1911 1.21456L11.7018 3.27421C12.0154 3.50095 12.257 3.78615 12.4348 4.1468L14.7144 3.02264ZM13.1806 1.20704C12.5522 0.762364 11.8397 0.451546 11.0613 0.261473L10.4584 2.73059C10.9608 2.85326 11.3727 3.04135 11.7124 3.28173L13.1806 1.20704ZM11.0748 0.264846C10.3371 0.076125 9.57782 -0.0256436 8.79935 -0.0425669L8.74411 2.4985C9.33576 2.51136 9.9019 2.5883 10.4449 2.72722L11.0748 0.264846ZM8.77449 -0.0428641L3.63655 -0.0540335L3.63103 2.48763L8.76897 2.4988L8.77449 -0.0428641ZM2.38172 0.999232L-0.444149 17.2619L2.05999 17.6971L4.88586 1.43436L2.38172 0.999232ZM5.12573 11.5795L8.10797 11.5907L8.11749 9.04906L5.13525 9.03789L5.12573 11.5795ZM8.0609 11.5897C8.30438 11.5996 8.44689 11.6421 8.5226 11.6767L9.57933 9.36514C9.1338 9.16147 8.65082 9.06996 8.16456 9.05011L8.0609 11.5897ZM8.55036 11.689C8.62495 11.721 8.64855 11.7487 8.65979 11.7637L10.6931 10.2387C10.3916 9.83671 9.99822 9.54428 9.55157 9.35285L8.55036 11.689ZM8.65039 11.751C8.66306 11.7684 8.69525 11.82 8.71817 11.9411L11.2155 11.4687C11.1342 11.0388 10.9728 10.6213 10.7025 10.2514L8.65039 11.751ZM8.71939 11.9475C8.73758 12.041 8.7459 12.1908 8.71113 12.4143L11.2226 12.805C11.2921 12.3583 11.3004 11.9049 11.2143 11.4623L8.71939 11.9475ZM8.71026 12.4199C8.6732 12.6655 8.60413 12.8332 8.52838 12.9514L10.6682 14.323C10.9647 13.8604 11.1414 13.3431 11.2235 12.7993L8.71026 12.4199ZM8.52838 12.9514C8.42903 13.1064 8.31231 13.227 8.1751 13.3234L9.63642 15.403C10.0502 15.1122 10.3952 14.7489 10.6682 14.323L8.52838 12.9514ZM8.16969 13.3273C8.01266 13.4388 7.83179 13.5259 7.61757 13.5852L8.29515 16.0348C8.78088 15.9005 9.23294 15.6897 9.64184 15.3992L8.16969 13.3273ZM7.61075 13.5871C7.3772 13.6531 7.12768 13.6904 6.85868 13.6958L6.90951 16.2369C7.38514 16.2274 7.85046 16.1605 8.30197 16.0329L7.61075 13.5871ZM6.89519 13.6956L4.33739 13.6732L4.3152 16.2148L6.873 16.2372L6.89519 13.6956ZM5.57842 15.1613L6.38262 10.526L3.87836 10.0915L3.07417 14.7268L5.57842 15.1613ZM6.77315 8.26086L7.5215 3.99414L5.01805 3.55505L4.2697 7.82178L6.77315 8.26086ZM6.26384 5.04542L8.6541 5.05659L8.66597 2.51495L6.27571 2.50378L6.26384 5.04542ZM8.6318 5.05629C8.87164 5.06162 9.0699 5.09309 9.23373 5.14052L9.94046 2.69908C9.53838 2.58269 9.11859 2.52481 8.68827 2.51525L8.6318 5.05629ZM9.26368 5.14879C9.40324 5.18552 9.47182 5.22916 9.50343 5.25469L11.1005 3.27742C10.7449 2.99021 10.3369 2.80301 9.91052 2.69081L9.26368 5.14879ZM9.48106 5.23619C9.48454 5.23914 9.50264 5.25187 9.52424 5.31487L11.9285 4.49055C11.7714 4.03231 11.5065 3.6206 11.1228 3.29592L9.48106 5.23619ZM9.528 5.32567C9.52796 5.32557 9.5582 5.41805 9.52367 5.66474L12.0408 6.01714C12.1105 5.5192 12.1035 4.9862 11.9248 4.47975L9.528 5.32567ZM9.52511 5.6547C9.48859 5.90126 9.42003 6.05388 9.35364 6.15091L11.4513 7.58615C11.7721 7.11726 11.9567 6.58483 12.0393 6.02718L9.52511 5.6547ZM9.36268 6.13787C9.26497 6.27692 9.14915 6.38688 9.00901 6.47539L10.3662 8.62434C10.792 8.35543 11.1528 8.01116 11.4423 7.59919L9.36268 6.13787ZM9.02158 6.46755C8.85367 6.57088 8.66166 6.65092 8.43745 6.7034L9.01665 9.17819C9.49239 9.06685 9.94076 8.88627 10.3537 8.63218L9.02158 6.46755ZM8.43745 6.7034C8.18384 6.76276 7.92364 6.79283 7.65479 6.79283V9.33449C8.11567 9.33449 8.57031 9.28265 9.01665 9.17819L8.43745 6.7034ZM7.66809 6.7929L5.53473 6.77056L5.50812 9.31208L7.64148 9.33442L7.66809 6.7929ZM17.752 1.2168V-0.0540365H16.6855L16.5004 0.996259L17.752 1.2168ZM17.3052 3.75226L16.0536 3.53172L15.7908 5.02309H17.3052V3.75226ZM20.3098 3.75226L21.5619 3.96948L21.82 2.48142H20.3098V3.75226ZM18.3663 14.9552V16.226H19.4356L19.6184 15.1724L18.3663 14.9552ZM15.3729 14.9552V13.6844H14.3072L14.1215 14.7337L15.3729 14.9552ZM14.9261 17.4795L13.6747 17.258L13.4106 18.7503H14.9261V17.4795ZM24.0739 17.4795V18.7503H25.1395L25.3252 17.701L24.0739 17.4795ZM24.5206 14.9552L25.772 15.1767L26.0361 13.6844H24.5206V14.9552ZM21.4379 14.9552L20.1857 14.738L19.9276 16.226H21.4379V14.9552ZM23.3813 3.75226V2.48142H22.312L22.1292 3.53504L23.3813 3.75226ZM26.4529 3.75226V5.02309H27.5194L27.7045 3.9728L26.4529 3.75226ZM26.8997 1.2168L28.1513 1.43733L28.4141 -0.0540365H26.8997V1.2168ZM16.5004 0.996259L16.0536 3.53172L18.5567 3.9728L19.0035 1.43733L16.5004 0.996259ZM17.3052 5.02309H20.3098V2.48142H17.3052V5.02309ZM19.0576 3.53504L17.1141 14.738L19.6184 15.1724L21.5619 3.96948L19.0576 3.53504ZM18.3663 13.6844H15.3729V16.226H18.3663V13.6844ZM14.1215 14.7337L13.6747 17.258L16.1775 17.701L16.6242 15.1767L14.1215 14.7337ZM14.9261 18.7503H24.0739V16.2087H14.9261V18.7503ZM25.3252 17.701L25.772 15.1767L23.2692 14.7337L22.8225 17.258L25.3252 17.701ZM24.5206 13.6844H21.4379V16.226H24.5206V13.6844ZM22.69 15.1724L24.6335 3.96948L22.1292 3.53504L20.1857 14.738L22.69 15.1724ZM23.3813 5.02309H26.4529V2.48142H23.3813V5.02309ZM27.7045 3.9728L28.1513 1.43733L25.6482 0.996259L25.2014 3.53172L27.7045 3.9728ZM26.8997 -0.0540365H17.752V2.48763H26.8997V-0.0540365ZM38.9739 15.5919L39.9118 16.4494L40.1702 16.1667L40.2294 15.7884L38.9739 15.5919ZM39.9791 9.16943L41.2347 9.36595L41.4643 7.8986H39.9791V9.16943ZM34.3162 9.16943V7.8986H33.2497L33.0647 8.94892L34.3162 9.16943ZM33.903 11.515L32.6514 11.2945L32.3886 12.7858H33.903V11.515ZM36.5278 11.515L37.7757 11.7552L38.0665 10.2442H36.5278V11.515ZM35.9581 14.4749L36.7383 15.478L37.1157 15.1845L37.2061 14.7151L35.9581 14.4749ZM34.8188 15.0334L35.122 16.2675L35.1321 16.265L35.1423 16.2624L34.8188 15.0334ZM33.5567 15.1674L33.5088 16.4374L33.5113 16.4374L33.5567 15.1674ZM32.5626 14.9105L31.9088 16.0003L31.9155 16.0043L31.9223 16.0082L32.5626 14.9105ZM31.9371 14.285L33.0269 13.6312L33.0158 13.6127L33.0041 13.5947L31.9371 14.285ZM31.4457 12.4197L32.7154 12.3657L32.7148 12.3514L32.7138 12.337L31.4457 12.4197ZM31.4457 11.4033L30.1798 11.2908L30.1786 11.3048L30.1777 11.3188L31.4457 11.4033ZM31.5462 10.4763L30.2884 10.2948L30.2873 10.3026L30.2862 10.3105L31.5462 10.4763ZM31.8701 8.2312L33.1279 8.41268L33.1282 8.41092L31.8701 8.2312ZM32.06 7.22595L30.8271 6.91773L30.8241 6.92988L30.8213 6.94208L32.06 7.22595ZM32.4062 6.15369L33.5879 6.62141L33.5905 6.61482L33.593 6.6082L32.4062 6.15369ZM32.8865 5.14844L33.9852 5.78722L33.9915 5.77624L32.8865 5.14844ZM34.3944 3.70758L33.8808 2.54512L33.8706 2.54971L34.3944 3.70758ZM36.4496 3.74109L35.8684 4.87123L35.8875 4.88106L35.9069 4.89024L36.4496 3.74109ZM37.5889 6.05316L36.3191 6.10607L36.3699 7.32399H37.5889V6.05316ZM40.5599 6.05316V7.32399H41.894L41.8293 5.99154L40.5599 6.05316ZM40.169 3.97565L38.9677 4.39037L38.9707 4.39902L38.9738 4.40763L40.169 3.97565ZM39.2419 2.37842L40.1794 1.5204L40.1718 1.51212L40.1641 1.50397L39.2419 2.37842ZM37.7229 1.37317L37.2509 2.55312L37.256 2.55511L37.7229 1.37317ZM35.6342 0.993408L35.658 -0.277241L35.6482 -0.277348L35.6342 0.993408ZM33.7466 1.26147L33.3587 0.0512739L33.3541 0.0527535L33.7466 1.26147ZM32.1717 2.04333L31.4407 1.0037L31.43 1.0114L32.1717 2.04333ZM30.8872 3.2608L31.8687 4.06815L31.875 4.06041L30.8872 3.2608ZM29.9043 4.75751L31.0316 5.3443L31.0346 5.33837L29.9043 4.75751ZM28.7874 8.25354L27.5306 8.06502L27.5299 8.06937L28.7874 8.25354ZM28.4634 10.4651L27.206 10.2809L27.2044 10.2922L27.2029 10.3035L28.4634 10.4651ZM28.3853 12.2075L27.1154 12.2564L27.1154 12.257L28.3853 12.2075ZM28.6198 13.8606L29.8557 13.5647L29.8537 13.5565L29.8517 13.5483L28.6198 13.8606ZM29.1783 15.3461L28.0565 15.9432L28.0602 15.9502L28.064 15.9572L29.1783 15.3461ZM30.1277 16.5524L30.9882 15.6171L30.9789 15.6087L30.1277 16.5524ZM31.4568 17.379L30.979 18.5565L30.9892 18.5607L30.9995 18.5647L31.4568 17.379ZM33.244 17.7029L33.2157 18.9734L33.2247 18.9736L33.244 17.7029ZM36.3044 17.2449L35.9384 16.0279L35.9361 16.0286L36.3044 17.2449ZM40.2294 15.7884L41.2347 9.36595L38.7236 8.97291L37.7183 15.3953L40.2294 15.7884ZM39.9791 7.8986H34.3162V10.4403H39.9791V7.8986ZM33.0647 8.94892L32.6514 11.2945L35.1545 11.7355L35.5678 9.38995L33.0647 8.94892ZM33.903 12.7858H36.5278V10.2442H33.903V12.7858ZM35.2798 11.2748L34.7102 14.2347L37.2061 14.7151L37.7757 11.7552L35.2798 11.2748ZM35.1779 13.4718C34.9829 13.6235 34.7597 13.7349 34.4954 13.8044L35.1423 16.2624C35.7269 16.1085 36.2632 15.8476 36.7383 15.478L35.1779 13.4718ZM34.5157 13.7992C34.1998 13.8768 33.8963 13.9079 33.6021 13.8974L33.5113 16.4374C34.051 16.4567 34.589 16.3984 35.122 16.2675L34.5157 13.7992ZM33.6046 13.8975C33.3631 13.8884 33.2482 13.8392 33.203 13.8128L31.9223 16.0082C32.4132 16.2946 32.961 16.4167 33.5088 16.4373L33.6046 13.8975ZM33.2165 13.8208C33.1347 13.7717 33.0759 13.7129 33.0269 13.6312L30.8474 14.9389C31.1111 15.3784 31.4693 15.7366 31.9088 16.0003L33.2165 13.8208ZM33.0041 13.5947C32.9269 13.4754 32.8617 13.3272 32.8175 13.1371L30.3419 13.7128C30.4466 14.1632 30.6197 14.5883 30.8702 14.9754L33.0041 13.5947ZM32.8175 13.1371C32.762 12.8986 32.7271 12.642 32.7154 12.3657L30.176 12.4738C30.194 12.8974 30.2485 13.311 30.3419 13.7128L32.8175 13.1371ZM32.7138 12.337C32.695 12.049 32.6952 11.766 32.7137 11.4879L30.1777 11.3188C30.1515 11.7108 30.1516 12.1055 30.1775 12.5024L32.7138 12.337ZM32.7115 11.5158C32.74 11.1955 32.7716 10.9045 32.8062 10.642L30.2862 10.3105C30.2463 10.6139 30.2109 10.941 30.1798 11.2908L32.7115 11.5158ZM32.804 10.6577L33.1279 8.41268L30.6123 8.04973L30.2884 10.2948L32.804 10.6577ZM33.1282 8.41092C33.1671 8.13817 33.2235 7.83813 33.2987 7.50983L30.8213 6.94208C30.7327 7.32861 30.6624 7.69875 30.6121 8.05148L33.1282 8.41092ZM33.2929 7.53417C33.3681 7.23328 33.4661 6.92909 33.5879 6.62141L31.2246 5.68596C31.0635 6.09313 30.9306 6.50378 30.8271 6.91773L33.2929 7.53417ZM33.593 6.6082C33.703 6.32114 33.8337 6.04773 33.9852 5.78718L31.7879 4.50969C31.5671 4.88953 31.3776 5.28628 31.2195 5.69918L33.593 6.6082ZM33.9915 5.77624C34.1222 5.54614 34.2695 5.35671 34.4306 5.20032L32.6604 3.37647C32.3152 3.71152 32.0232 4.09547 31.7816 4.52063L33.9915 5.77624ZM34.4306 5.20032C34.5815 5.05393 34.7429 4.94474 34.9182 4.86545L33.8706 2.54971C33.4204 2.75338 33.016 3.0314 32.6604 3.37647L34.4306 5.20032ZM34.908 4.86999C35.0302 4.81602 35.1921 4.77908 35.4188 4.78763L35.5146 2.24777C34.9519 2.22654 34.399 2.31618 33.8808 2.54517L34.908 4.86999ZM35.4188 4.78763C35.6888 4.79782 35.8201 4.84642 35.8684 4.87123L37.0308 2.61095C36.5578 2.36769 36.0338 2.26736 35.5146 2.24777L35.4188 4.78763ZM35.9069 4.89024C35.9975 4.93301 36.0426 4.97671 36.0726 5.01758L38.1222 3.51453C37.8246 3.10862 37.4378 2.80234 36.9922 2.59194L35.9069 4.89024ZM36.0726 5.01758C36.1251 5.08917 36.1801 5.19566 36.2202 5.36021L38.6895 4.75795C38.5807 4.31191 38.3974 3.88971 38.1222 3.51453L36.0726 5.01758ZM36.2202 5.36021C36.2723 5.57386 36.3073 5.82108 36.3191 6.10607L38.8586 6.00026C38.8407 5.5704 38.7863 5.1549 38.6895 4.75795L36.2202 5.36021ZM37.5889 7.32399H40.5599V4.78233H37.5889V7.32399ZM41.8293 5.99154C41.7869 5.11887 41.6371 4.29885 41.3642 3.54366L38.9738 4.40763C39.1477 4.88852 39.2585 5.45352 39.2906 6.11478L41.8293 5.99154ZM41.3703 3.56093C41.1039 2.7895 40.7112 2.10147 40.1794 1.5204L38.3045 3.23643C38.5769 3.53403 38.8022 3.91082 38.9677 4.39037L41.3703 3.56093ZM40.1641 1.50397C39.616 0.925931 38.9497 0.491413 38.1898 0.191228L37.256 2.55511C37.7024 2.73149 38.0488 2.96714 38.3198 3.25287L40.1641 1.50397ZM38.1949 0.19323C37.4266 -0.114079 36.5725 -0.260108 35.658 -0.277203L35.6105 2.26402C36.2894 2.27671 36.8278 2.38385 37.2509 2.55311L38.1949 0.19323ZM35.6482 -0.277348C34.8492 -0.286128 34.0829 -0.180835 33.3587 0.0512825L34.1345 2.47167C34.5719 2.33147 35.064 2.25805 35.6203 2.26416L35.6482 -0.277348ZM33.3541 0.0527535C32.6644 0.276709 32.0246 0.593201 31.4407 1.00376L32.9026 3.08291C33.2719 2.8233 33.6821 2.61855 34.139 2.4702L33.3541 0.0527535ZM31.43 1.0114C30.8588 1.42192 30.3485 1.90653 29.8995 2.4612L31.875 4.06041C32.1855 3.67684 32.5314 3.34981 32.9134 3.07527L31.43 1.0114ZM29.9058 2.45348C29.468 2.9857 29.0906 3.56061 28.774 4.17665L31.0346 5.33837C31.2691 4.88213 31.5469 4.45924 31.8687 4.06813L29.9058 2.45348ZM28.777 4.17072C28.4588 4.78209 28.1958 5.42135 27.9876 6.08737L30.4136 6.84549C30.5778 6.3201 30.7839 5.82008 31.0315 5.3443L28.777 4.17072ZM27.9876 6.08737C27.7827 6.74313 27.63 7.4025 27.5306 8.06502L30.0441 8.44206C30.1235 7.91318 30.2462 7.38113 30.4136 6.84549L27.9876 6.08737ZM27.5299 8.06937L27.206 10.2809L29.7209 10.6493L30.0448 8.43771L27.5299 8.06937ZM27.2029 10.3035C27.1196 10.9535 27.0903 11.6047 27.1154 12.2564L29.6551 12.1587C29.6355 11.6487 29.6584 11.1383 29.724 10.6267L27.2029 10.3035ZM27.1154 12.257C27.141 12.9145 27.231 13.5538 27.3879 14.1729L29.8517 13.5483C29.7406 13.11 29.6742 12.6473 29.6551 12.158L27.1154 12.257ZM27.3839 14.1565C27.5346 14.7859 27.7581 15.3827 28.0565 15.9432L30.3001 14.749C30.107 14.3862 29.9582 13.9927 29.8557 13.5647L27.3839 14.1565ZM28.064 15.9572C28.3836 16.5399 28.7879 17.0554 29.2765 17.4961L30.9789 15.6087C30.7079 15.3644 30.4793 15.0757 30.2926 14.7351L28.064 15.9572ZM29.2673 17.4877C29.7618 17.9427 30.3377 18.2963 30.979 18.5565L31.9347 16.2014C31.5484 16.0446 31.2382 15.8472 30.9881 15.6172L29.2673 17.4877ZM30.9995 18.5647C31.6821 18.8279 32.4272 18.9559 33.2157 18.9734L33.2722 16.4324C32.7204 16.4201 32.2741 16.3321 31.9142 16.1933L30.9995 18.5647ZM33.2247 18.9736C34.354 18.9907 35.5051 18.8148 36.6727 18.4612L35.9361 16.0286C34.9889 16.3154 34.0998 16.4449 33.2632 16.4322L33.2247 18.9736ZM36.6703 18.4619C37.9434 18.0791 39.0344 17.409 39.9118 16.4494L38.036 14.7343C37.4837 15.3384 36.795 15.7704 35.9384 16.0279L36.6703 18.4619ZM63.5243 13.1569L64.7819 13.3403L64.7838 13.3265L63.5243 13.1569ZM63.1669 14.084L64.1907 14.8368L64.1959 14.8298L64.201 14.8226L63.1669 14.084ZM62.4855 14.7095L61.8229 13.6251L61.812 13.6317L61.8013 13.6385L62.4855 14.7095ZM61.592 15.0892L61.8798 16.327L61.89 16.3247L61.9002 16.3221L61.592 15.0892ZM60.6202 15.2009L60.5991 16.4716L60.6096 16.4718H60.6202V15.2009ZM59.4363 15.011L58.9957 16.2031L59.0072 16.2073L59.0188 16.2113L59.4363 15.011ZM58.5986 14.4749L59.5266 13.6067L59.5257 13.6057L58.5986 14.4749ZM57.9507 12.4309L59.2208 12.474L59.2652 11.165L57.9555 11.1601L57.9507 12.4309ZM54.9573 12.4197L54.9621 11.1489L53.7208 11.1443L53.687 12.3851L54.9573 12.4197ZM55.3259 14.6201L54.1517 15.106L54.155 15.1142L54.1586 15.1224L55.3259 14.6201ZM58.2523 17.312L57.8191 18.5067L57.8307 18.5108L58.2523 17.312ZM60.4415 17.6917L60.4675 16.4211L60.4657 16.4211L60.4415 17.6917ZM62.6196 17.4572L62.9128 18.6937L62.9219 18.6915L62.6196 17.4572ZM64.5519 16.5636L63.7985 15.5401L63.7916 15.5453L64.5519 16.5636ZM65.9034 15.1451L66.963 15.8467L66.9673 15.8402L65.9034 15.1451ZM66.5289 13.1346L67.7969 13.2191L67.7969 13.2182L66.5289 13.1346ZM66.2608 11.3028L65.0776 11.7665L65.0814 11.7762L65.0854 11.7859L66.2608 11.3028ZM65.3449 9.85077L66.2679 8.97718L66.2597 8.96864L65.3449 9.85077ZM63.9376 8.7785L63.3087 9.8829L63.3204 9.88941L63.9376 8.7785ZM62.251 8.01898L62.662 6.81644L62.6525 6.81322L62.643 6.81014L62.251 8.01898ZM61.3351 7.70624L60.886 8.89507L60.8976 8.89947L60.9093 8.90364L61.3351 7.70624ZM60.408 7.23712L61.1065 6.17545L61.0904 6.16488L61.0741 6.15481L60.408 7.23712ZM59.7155 6.57812L58.6446 7.26233L58.649 7.26921L58.6535 7.27604L59.7155 6.57812ZM59.5256 5.60638L58.2646 5.44875L58.2635 5.4579L59.5256 5.60638ZM59.8719 4.67932L60.906 5.41798L60.9109 5.41112L60.9157 5.4042L59.8719 4.67932ZM60.5532 4.00916L59.869 2.93823L59.8586 2.94489L59.8483 2.95176L60.5532 4.00916ZM61.4356 3.62939L61.7506 4.86058L61.7603 4.85809L61.77 4.85545L61.4356 3.62939ZM62.4185 3.50653L62.3896 4.77704L62.3941 4.77713L62.4185 3.50653ZM63.4238 3.69641L62.9306 4.86771L62.9414 4.87215L63.4238 3.69641ZM64.1498 4.19904L65.1123 3.36926L65.1043 3.3599L65.096 3.3507L64.1498 4.19904ZM64.563 4.9809L63.3434 5.33787L63.3474 5.35148L63.3517 5.365L64.563 4.9809ZM64.6971 5.98615L63.4265 5.96022L63.4001 7.25211L64.6923 7.25697L64.6971 5.98615ZM67.6682 5.99731L67.6634 7.26814L68.902 7.2728L68.9384 6.03468L67.6682 5.99731ZM67.3331 3.94214L66.1491 4.40417L66.1541 4.41659L67.3331 3.94214ZM62.6531 0.993408L62.6263 2.26396L62.6274 2.26398L62.6531 0.993408ZM60.5309 1.25031L60.2075 0.0213104L60.2043 0.022165L60.5309 1.25031ZM56.5546 5.59521L57.8228 5.67704L57.8233 5.66841L56.5546 5.59521ZM56.8561 7.44934L55.6981 7.97282L55.7025 7.98245L55.707 7.99199L56.8561 7.44934ZM59.3693 9.89545L58.783 11.023L58.7919 11.0276L58.8009 11.0321L59.3693 9.89545ZM61.0894 10.5991L61.5 9.39647L61.4887 9.39259L61.4772 9.38893L61.0894 10.5991ZM62.8541 11.448L63.6736 10.4767L63.6574 10.463L63.6406 10.4498L62.8541 11.448ZM63.4014 12.1628L62.2467 12.6934L62.2525 12.7062L62.2587 12.7188L63.4014 12.1628ZM62.2668 12.9735C62.2401 13.1566 62.187 13.2694 62.1328 13.3453L64.201 14.8226C64.5191 14.3773 64.7043 13.8721 64.7818 13.3403L62.2668 12.9735ZM62.143 13.3312C62.0546 13.4515 61.9501 13.5473 61.8229 13.6251L63.1482 15.7939C63.5571 15.544 63.9069 15.2229 64.1907 14.8368L62.143 13.3312ZM61.8013 13.6385C61.656 13.7314 61.4864 13.8057 61.2838 13.8563L61.9002 16.3221C62.3528 16.209 62.779 16.0301 63.1697 15.7804L61.8013 13.6385ZM61.3041 13.8514C61.078 13.904 60.8506 13.9301 60.6202 13.9301V16.4718C61.0451 16.4718 61.4656 16.4234 61.8798 16.327L61.3041 13.8514ZM60.6414 13.9303C60.2995 13.9246 60.0431 13.8766 59.8538 13.8107L59.0188 16.2113C59.5145 16.3838 60.0474 16.4624 60.5991 16.4716L60.6414 13.9303ZM59.8768 13.819C59.6909 13.7503 59.5879 13.6723 59.5266 13.6067L57.6705 15.3431C58.0411 15.7392 58.4966 16.0186 58.9957 16.2031L59.8768 13.819ZM59.5257 13.6057C59.4423 13.5168 59.3641 13.3936 59.3042 13.2097L56.8877 13.9977C57.0512 14.4989 57.308 14.9565 57.6715 15.3441L59.5257 13.6057ZM59.3042 13.2097C59.2473 13.0353 59.2099 12.7967 59.2208 12.474L56.6806 12.3879C56.6618 12.9438 56.7212 13.487 56.8877 13.9977L59.3042 13.2097ZM57.9555 11.1601L54.9621 11.1489L54.9526 13.6906L57.946 13.7017L57.9555 11.1601ZM53.687 12.3851C53.6606 13.3527 53.8048 14.2679 54.1517 15.106L56.5002 14.1342C56.3109 13.6767 56.2094 13.1249 56.2277 12.4544L53.687 12.3851ZM54.1586 15.1224C54.5032 15.9234 54.9947 16.6215 55.632 17.2017L57.3431 15.3223C56.9826 14.9941 56.6997 14.5976 56.4933 14.1179L54.1586 15.1224ZM55.632 17.2017C56.2619 17.7752 56.9962 18.2082 57.8191 18.5067L58.6856 16.1172C58.1532 15.9242 57.711 15.6573 57.3431 15.3223L55.632 17.2017ZM57.8307 18.5108C58.647 18.7978 59.512 18.9451 60.4173 18.9623L60.4657 16.4211C59.8073 16.4086 59.2129 16.3026 58.6739 16.1131L57.8307 18.5108ZM60.4156 18.9623C61.2545 18.9794 62.0878 18.8893 62.9128 18.6937L62.3264 16.2206C61.7068 16.3675 61.088 16.4338 60.4675 16.4211L60.4156 18.9623ZM62.9219 18.6915C63.8042 18.4754 64.6067 18.1086 65.3122 17.5819L63.7916 15.5453C63.3801 15.8525 62.8944 16.0815 62.3173 16.2228L62.9219 18.6915ZM65.3053 17.587C65.9607 17.1046 66.5151 16.5231 66.963 15.8467L64.8438 14.4435C64.5619 14.8691 64.2154 15.2333 63.7985 15.5401L65.3053 17.587ZM66.9673 15.8402C67.4708 15.0695 67.7328 14.1804 67.7969 13.2191L65.2609 13.05C65.2207 13.6525 65.0657 14.1037 64.8395 14.45L66.9673 15.8402ZM67.7969 13.2182C67.8524 12.3772 67.744 11.5686 67.4362 10.8197L65.0854 11.7859C65.2244 12.1241 65.2947 12.5368 65.2608 13.051L67.7969 13.2182ZM67.444 10.8391C67.1704 10.1408 66.7783 9.51651 66.2679 8.97722L64.4219 10.7243C64.7008 11.019 64.9194 11.3628 65.0776 11.7665L67.444 10.8391ZM66.2597 8.96864C65.7653 8.45589 65.1944 8.02296 64.5547 7.6676L63.3204 9.88941C63.753 10.1298 64.1203 10.4117 64.4301 10.7329L66.2597 8.96864ZM64.5664 7.67417C63.9604 7.32906 63.3252 7.04311 62.662 6.81644L61.84 9.22152C62.3533 9.39695 62.8425 9.61735 63.3087 9.88284L64.5664 7.67417ZM62.643 6.81014C62.381 6.72515 62.0871 6.62486 61.7608 6.50884L60.9093 8.90364C61.2532 9.02589 61.5699 9.1341 61.8589 9.22783L62.643 6.81014ZM61.7842 6.51741C61.5316 6.422 61.3069 6.3073 61.1065 6.17545L59.7095 8.2988C60.075 8.53925 60.4684 8.7373 60.886 8.89507L61.7842 6.51741ZM61.0741 6.15481C60.9272 6.06444 60.8373 5.97116 60.7776 5.88021L58.6535 7.27604C58.9362 7.70633 59.308 8.05238 59.742 8.31944L61.0741 6.15481ZM60.7864 5.89392C60.7899 5.89939 60.7891 5.90176 60.7868 5.89043C60.7841 5.87626 60.7784 5.83431 60.7878 5.75487L58.2635 5.4579C58.1918 6.0678 58.2852 6.69973 58.6446 7.26233L60.7864 5.89392ZM60.7867 5.76401C60.8085 5.58959 60.8572 5.48627 60.906 5.41798L58.8378 3.94066C58.5142 4.39361 58.3322 4.90833 58.2646 5.44876L60.7867 5.76401ZM60.9157 5.4042C61.012 5.26553 61.1247 5.15553 61.2582 5.06655L59.8483 2.95176C59.4456 3.22021 59.1041 3.55698 58.8281 3.95444L60.9157 5.4042ZM61.2374 5.08008C61.3873 4.98432 61.556 4.91034 61.7506 4.86058L61.1207 2.39821C60.6748 2.51227 60.2553 2.69146 59.869 2.93823L61.2374 5.08008ZM61.77 4.85545C61.9836 4.79718 62.189 4.77248 62.3896 4.77704L62.4474 2.23603C61.9928 2.22569 61.5429 2.2829 61.1012 2.40334L61.77 4.85545ZM62.3941 4.77713C62.6606 4.78226 62.8294 4.82505 62.9306 4.86766L63.9169 2.52517C63.4522 2.32949 62.9508 2.2457 62.443 2.23593L62.3941 4.77713ZM62.9414 4.87215C63.0693 4.92463 63.1482 4.98564 63.2036 5.04737L65.096 3.3507C64.7641 2.98054 64.359 2.70647 63.9061 2.52068L62.9414 4.87215ZM63.1872 5.02881C63.2419 5.09218 63.2991 5.18646 63.3434 5.33787L65.7827 4.62392C65.6483 4.16473 65.43 3.73777 65.1123 3.36926L63.1872 5.02881ZM63.3517 5.365C63.401 5.52072 63.4315 5.71525 63.4265 5.96022L65.9677 6.01207C65.9775 5.52731 65.9187 5.05167 65.7744 4.59679L63.3517 5.365ZM64.6923 7.25697L67.6634 7.26814L67.6729 4.72649L64.7019 4.71532L64.6923 7.25697ZM68.9384 6.03468C68.9651 5.12693 68.8325 4.26396 68.512 3.46769L66.1541 4.41659C66.3251 4.84151 66.4158 5.34866 66.3979 5.95995L68.9384 6.03468ZM68.5169 3.48014C68.2159 2.70862 67.7742 2.03069 67.1887 1.4647L65.4222 3.29213C65.7303 3.58991 65.9737 3.95446 66.1492 4.40414L68.5169 3.48014ZM67.1887 1.4647C66.6091 0.904342 65.9231 0.4803 65.1495 0.185591L64.2447 2.56075C64.722 2.7426 65.1084 2.98872 65.4222 3.29213L67.1887 1.4647ZM65.1495 0.185591C64.3744 -0.109675 63.5471 -0.259623 62.6787 -0.277166L62.6274 2.26398C63.2334 2.27622 63.7688 2.37945 64.2447 2.56075L65.1495 0.185591ZM62.6798 -0.277144C61.8504 -0.294605 61.0252 -0.193879 60.2075 0.0213146L60.8543 2.4793C61.4514 2.32217 62.041 2.25164 62.6263 2.26396L62.6798 -0.277144ZM60.2043 0.022165C59.3737 0.243052 58.606 0.586929 57.9097 1.05718L59.3321 3.16352C59.7825 2.85936 60.2881 2.62987 60.8575 2.47845L60.2043 0.022165ZM57.9097 1.05718C57.1958 1.53929 56.5996 2.14505 56.1276 2.86692L58.2549 4.25784C58.5424 3.81808 58.8993 3.45583 59.3321 3.16352L57.9097 1.05718ZM56.1276 2.86692C55.6124 3.65484 55.3418 4.55253 55.2858 5.52202L57.8233 5.66841C57.8567 5.08907 58.0105 4.63154 58.2549 4.25784L56.1276 2.86692ZM55.2864 5.5134C55.2305 6.3796 55.3536 7.21072 55.6981 7.97282L58.0141 6.92586C57.8672 6.60081 57.7893 6.19584 57.8228 5.67703L55.2864 5.5134ZM55.707 7.99199C56.0288 8.67338 56.4672 9.27417 57.0178 9.7868L58.7497 7.92657C58.4365 7.63501 58.1899 7.29757 58.0053 6.90669L55.707 7.99199ZM57.0178 9.7868C57.5389 10.272 58.1296 10.6832 58.783 11.023L59.9556 8.76794C59.492 8.5269 59.0923 8.24554 58.7497 7.92657L57.0178 9.7868ZM58.8009 11.0321C59.4229 11.3431 60.0565 11.6026 60.7015 11.8093L61.4772 9.38893C60.9606 9.22335 60.4475 9.01373 59.9376 8.75878L58.8009 11.0321ZM60.6787 11.8018C60.952 11.8951 61.231 12.0026 61.5158 12.1246L62.517 9.78846C62.1763 9.64246 61.8373 9.51165 61.5 9.39647L60.6787 11.8018ZM61.5158 12.1246C61.7351 12.2186 61.9166 12.3273 62.0676 12.4462L63.6406 10.4498C63.3002 10.1815 62.9232 9.96254 62.517 9.78846L61.5158 12.1246ZM62.0346 12.4193C62.1343 12.5034 62.2003 12.5925 62.2467 12.6934L64.5562 11.6323C64.3494 11.1821 64.0506 10.7947 63.6736 10.4767L62.0346 12.4193ZM62.2587 12.7188C62.2592 12.7198 62.2666 12.7347 62.2714 12.7739C62.2765 12.815 62.2787 12.8839 62.2648 12.9874L64.7838 13.3265C64.8601 12.7591 64.8143 12.1621 64.5442 11.6069L62.2587 12.7188ZM80.2114 10.5321L81.4662 10.7335L81.467 10.7285L80.2114 10.5321ZM80.58 8.17535L81.8356 8.37172L81.838 8.35646L81.84 8.34114L80.58 8.17535ZM80.4013 4.81335L81.6332 4.50105L81.6306 4.49073L81.6278 4.48046L80.4013 4.81335ZM79.8093 3.35016L78.695 3.96123L78.6993 3.96887L79.8093 3.35016ZM78.8599 2.13269L79.7211 1.19818L79.7116 1.18941L79.7019 1.18084L78.8599 2.13269ZM77.5084 1.31732L77.0394 2.49847L77.0453 2.50078L77.5084 1.31732ZM75.766 0.993408L75.7949 -0.277097L75.7939 -0.277118L75.766 0.993408ZM73.8895 1.25031L74.2677 2.46357L74.2748 2.46134L74.282 2.45903L73.8895 1.25031ZM72.3258 2.00983L71.5981 0.967885L71.5871 0.975707L72.3258 2.00983ZM70.1031 4.70166L71.2335 5.28255L71.2398 5.26999L70.1031 4.70166ZM69.4106 6.39941L68.1976 6.02034L68.1946 6.03001L69.4106 6.39941ZM69.0085 8.17535L70.2642 8.37082L70.2653 8.36387L69.0085 8.17535ZM68.6399 10.5433L67.3842 10.3478L67.382 10.3615L67.3802 10.3753L68.6399 10.5433ZM68.7851 13.8606L70.021 13.5647L70.02 13.5607L68.7851 13.8606ZM69.3324 15.3461L68.2031 15.929L68.207 15.9365L69.3324 15.3461ZM70.2483 16.5413L71.128 15.6241L71.1184 15.615L71.1087 15.606L70.2483 16.5413ZM71.5439 17.379L71.0539 18.5515L71.0644 18.5559L71.075 18.5601L71.5439 17.379ZM73.2752 17.7029L73.246 18.9734L73.2476 18.9734L73.2752 17.7029ZM78.0669 15.5248L77.0932 14.7082L77.0919 14.7097L78.0669 15.5248ZM79.0833 14.0281L80.2008 14.6334L80.2072 14.6213L79.0833 14.0281ZM77.4749 8.14185L78.731 8.33465L78.7328 8.32335L78.7343 8.31203L77.4749 8.14185ZM77.1063 10.5433L78.3607 10.7475L78.3624 10.7361L77.1063 10.5433ZM76.5925 12.6096L77.7793 13.0641L77.782 13.0572L77.7846 13.0502L76.5925 12.6096ZM75.4644 14.4191L76.3206 15.3582L76.3276 15.3518L76.3345 15.3453L75.4644 14.4191ZM74.6044 14.9664L75.0716 16.1482L75.0834 16.1435L75.0951 16.1386L74.6044 14.9664ZM73.5209 15.1339L73.4711 16.4038L73.4739 16.4039L73.5209 15.1339ZM72.5827 14.877L71.8627 15.9242L71.8814 15.937L71.9004 15.9492L72.5827 14.877ZM71.6221 12.4086H72.893V12.3945L72.8927 12.3803L71.6221 12.4086ZM71.6445 11.4257L70.3791 11.308L70.3777 11.3226L70.3767 11.3372L71.6445 11.4257ZM71.745 10.5544L70.4888 10.3616L70.4869 10.3747L71.745 10.5544ZM72.1136 8.15302L73.3697 8.34582L73.371 8.33724L73.3722 8.32864L72.1136 8.15302ZM72.2923 7.14777L73.5353 7.41224L73.5364 7.40696L72.2923 7.14777ZM72.5827 6.09784L73.783 6.51533L73.7871 6.50362L73.7909 6.49182L72.5827 6.09784ZM73.0071 5.1261L74.1155 5.74789L74.1218 5.7365L73.0071 5.1261ZM74.4368 3.76343L74.9136 4.94142L74.9256 4.93659L74.9374 4.93151L74.4368 3.76343ZM75.5203 3.58472L75.5701 2.31485L75.5664 2.31472L75.5203 3.58472ZM77.5754 6.24304L78.845 6.18662L78.8444 6.1716L78.8433 6.15659L77.5754 6.24304ZM81.467 10.7285L81.8356 8.37172L79.3244 7.97899L78.9559 10.3357L81.467 10.7285ZM81.84 8.34114C81.9246 7.69797 81.9499 7.05077 81.9162 6.4005L79.3779 6.53236C79.4037 7.02882 79.3843 7.5209 79.32 8.00957L81.84 8.34114ZM81.9162 6.4005C81.8823 5.74834 81.7887 5.11456 81.6332 4.50105L79.1694 5.12566C79.282 5.56952 79.3522 6.03779 79.3779 6.53236L81.9162 6.4005ZM81.6278 4.48046C81.4603 3.86342 81.2247 3.27928 80.9194 2.73144L78.6993 3.96887C78.9003 4.32948 79.0594 4.7208 79.1748 5.14625L81.6278 4.48046ZM80.9236 2.7391C80.6055 2.159 80.2042 1.64337 79.7211 1.19818L77.9987 3.06721C78.2751 3.32196 78.5068 3.61797 78.695 3.96122L80.9236 2.7391ZM79.7019 1.18084C79.1957 0.732992 78.6148 0.385601 77.9715 0.133867L77.0453 2.50078C77.4296 2.65114 77.7498 2.84733 78.0179 3.08454L79.7019 1.18084ZM77.9774 0.136189C77.3056 -0.130569 76.5712 -0.259453 75.7949 -0.277097L75.7371 2.26391C76.2713 2.27605 76.6986 2.36311 77.0394 2.49846L77.9774 0.136189ZM75.7939 -0.277118C74.9913 -0.294759 74.2219 -0.193731 73.4971 0.041584L74.282 2.45903C74.7039 2.32203 75.1855 2.25179 75.7381 2.26393L75.7939 -0.277118ZM73.5114 0.0370401C72.8196 0.252655 72.1795 0.561934 71.5981 0.967943L73.0535 3.05171C73.4104 2.80245 73.8127 2.60538 74.2677 2.46357L73.5114 0.0370401ZM71.5871 0.975707C71.0215 1.37975 70.5171 1.85833 70.0744 2.40719L72.0529 4.00272C72.3549 3.62824 72.6919 3.31007 73.0645 3.04395L71.5871 0.975707ZM70.0744 2.40719C69.6443 2.94058 69.2748 3.51652 68.9664 4.13333L71.2398 5.26999C71.4675 4.81453 71.7384 4.39267 72.0529 4.00272L70.0744 2.40719ZM68.9728 4.1208C68.6628 4.72395 68.4047 5.35759 68.1976 6.02036L70.6236 6.77847C70.7888 6.24983 70.9923 5.75163 71.2334 5.28252L68.9728 4.1208ZM68.1946 6.03001C67.9983 6.67627 67.8504 7.32868 67.7517 7.98684L70.2653 8.36387C70.3452 7.83063 70.4655 7.29908 70.6265 6.76882L68.1946 6.03001ZM67.7528 7.97989L67.3842 10.3478L69.8956 10.7387L70.2642 8.37082L67.7528 7.97989ZM67.3802 10.3753C67.2961 11.0064 67.2667 11.6416 67.2919 12.28L69.8316 12.1797C69.8121 11.6863 69.8348 11.1971 69.8996 10.7112L67.3802 10.3753ZM67.2919 12.28C67.3173 12.9254 67.4026 13.5529 67.5502 14.1605L70.02 13.5607C69.9144 13.1258 69.8508 12.6661 69.8316 12.1797L67.2919 12.28ZM67.5492 14.1565C67.6985 14.7802 67.9157 15.3722 68.2031 15.929L70.4617 14.7633C70.2725 14.3967 70.1248 13.9984 70.021 13.5647L67.5492 14.1565ZM68.207 15.9365C68.5122 16.5182 68.9066 17.0337 69.3879 17.4765L71.1087 15.606C70.8454 15.3638 70.6292 15.0825 70.4578 14.7558L68.207 15.9365ZM69.3686 17.4584C69.8542 17.9241 70.4206 18.2869 71.0539 18.5515L72.034 16.2064C71.6695 16.0541 71.3722 15.8583 71.128 15.6241L69.3686 17.4584ZM71.075 18.5601C71.7452 18.8262 72.4753 18.9557 73.246 18.9734L73.3044 16.4324C72.7795 16.4203 72.3554 16.3338 72.0129 16.1978L71.075 18.5601ZM73.2476 18.9734C74.0514 18.9909 74.8216 18.8952 75.5477 18.6718L74.8003 16.2425C74.3648 16.3765 73.8691 16.4447 73.3028 16.4323L73.2476 18.9734ZM75.5477 18.6718C76.244 18.4575 76.8913 18.151 77.4836 17.75L76.0589 15.6452C75.6832 15.8996 75.2656 16.0993 74.8003 16.2425L75.5477 18.6718ZM77.4836 17.75C78.0671 17.3551 78.5871 16.884 79.0419 16.34L77.0919 14.7097C76.7872 15.0742 76.4434 15.3849 76.0589 15.6452L77.4836 17.75ZM79.0406 16.3415C79.4833 15.8136 79.8701 15.2438 80.2007 14.6334L77.9659 13.4229C77.7157 13.8848 77.4249 14.3127 77.0932 14.7082L79.0406 16.3415ZM80.2072 14.6213C80.5274 14.0147 80.7914 13.3769 81 12.7094L78.574 11.9513C78.4103 12.4753 78.2052 12.9693 77.9594 13.435L80.2072 14.6213ZM81 12.7094C81.2039 12.0569 81.3595 11.3981 81.4662 10.7335L78.9567 10.3307C78.8697 10.8724 78.7424 11.4125 78.574 11.9513L81 12.7094ZM76.2188 7.94905L75.8502 10.3505L78.3624 10.7361L78.731 8.33465L76.2188 7.94905ZM75.852 10.3391C75.8047 10.6294 75.7432 10.9415 75.6666 11.2758L78.144 11.8436C78.2312 11.4631 78.3037 11.0975 78.3606 10.7475L75.852 10.3391ZM75.6666 11.2758C75.5968 11.5803 75.5081 11.8779 75.4005 12.1691L77.7846 13.0502C77.9301 12.6562 78.05 12.2539 78.144 11.8436L75.6666 11.2758ZM75.4058 12.1551C75.2969 12.4393 75.1682 12.7051 75.0202 12.9537L77.2043 14.2537C77.4286 13.8768 77.6201 13.4798 77.7793 13.0641L75.4058 12.1551ZM75.0202 12.9537C74.89 13.1725 74.7469 13.3494 74.5943 13.4928L76.3345 15.3453C76.6733 15.027 76.9622 14.6604 77.2043 14.2537L75.0202 12.9537ZM74.6082 13.48C74.464 13.6114 74.3013 13.7155 74.1137 13.7941L75.0951 16.1386C75.5478 15.9491 75.9585 15.6884 76.3206 15.3582L74.6082 13.48ZM74.1371 13.7845C74.0057 13.8365 73.8237 13.8734 73.568 13.8639L73.4739 16.4039C74.0224 16.4242 74.5627 16.3494 75.0716 16.1482L74.1371 13.7845ZM73.5707 13.8641C73.3488 13.8554 73.2717 13.8091 73.265 13.8049L71.9004 15.9492C72.3851 16.2576 72.9335 16.3827 73.4711 16.4038L73.5707 13.8641ZM73.3027 13.8298C73.2258 13.7769 73.169 13.7148 73.1224 13.6316L70.9037 14.8715C71.1401 15.2946 71.4631 15.6495 71.8627 15.9242L73.3027 13.8298ZM73.1224 13.6316C73.0561 13.5129 72.9982 13.3598 72.9609 13.159L70.4621 13.6239C70.5439 14.0635 70.687 14.4838 70.9037 14.8715L73.1224 13.6316ZM72.9609 13.159C72.916 12.9177 72.893 12.6679 72.893 12.4086H70.3513C70.3513 12.8194 70.3879 13.2249 70.4621 13.6239L72.9609 13.159ZM72.8927 12.3803C72.886 12.0825 72.8927 11.7938 72.9122 11.5141L70.3767 11.3372C70.3516 11.6979 70.3433 12.0645 70.3516 12.4368L72.8927 12.3803ZM72.9098 11.5434C72.9381 11.2396 72.9693 10.9703 73.0031 10.7342L70.4869 10.3747C70.4462 10.6599 70.4104 10.9714 70.3791 11.308L72.9098 11.5434ZM73.0011 10.7472L73.3697 8.34582L70.8575 7.96021L70.4889 10.3616L73.0011 10.7472ZM73.3722 8.32864C73.4123 8.04119 73.4665 7.73585 73.5353 7.41224L71.0493 6.8833C70.9692 7.25963 70.9042 7.62446 70.8549 7.97739L73.3722 8.32864ZM73.5364 7.40696C73.5998 7.10283 73.682 6.80575 73.783 6.51533L71.3824 5.68034C71.2451 6.07499 71.1337 6.47786 71.0482 6.88857L73.5364 7.40696ZM73.7909 6.49182C73.8776 6.22599 73.9861 5.97859 74.1155 5.74786L71.8988 4.50434C71.6857 4.8842 71.5112 5.28463 71.3745 5.70385L73.7909 6.49182ZM74.1218 5.7365C74.2385 5.52344 74.3719 5.3463 74.5201 5.19818L72.7228 3.40095C72.3944 3.72938 72.1184 4.10327 71.8925 4.5157L74.1218 5.7365ZM74.5201 5.19818C74.6264 5.09186 74.7534 5.00628 74.9136 4.94142L73.96 2.58543C73.4948 2.77374 73.0782 3.04559 72.7228 3.40095L74.5201 5.19818ZM74.9374 4.93151C75.046 4.88497 75.2143 4.84527 75.4741 4.85471L75.5664 2.31472C75.0071 2.29438 74.4531 2.37382 73.9362 2.59535L74.9374 4.93151ZM75.4705 4.85457C75.6908 4.86321 75.7798 4.90919 75.8019 4.92284L77.1375 2.76039C76.6532 2.46129 76.1092 2.336 75.5701 2.31486L75.4705 4.85457ZM75.8019 4.92284C75.8955 4.98069 75.9607 5.04668 76.0118 5.12704L78.1561 3.76248C77.8945 3.35139 77.5502 3.01528 77.1375 2.76039L75.8019 4.92284ZM76.0118 5.12704C76.0848 5.24177 76.1489 5.38742 76.194 5.57682L78.6665 4.98812C78.5627 4.55203 78.3959 4.13921 78.1561 3.76248L76.0118 5.12704ZM76.194 5.57682C76.2518 5.8198 76.2899 6.0704 76.3075 6.32949L78.8433 6.15659C78.8163 5.76041 78.7576 5.37063 78.6665 4.98812L76.194 5.57682ZM76.3059 6.29947C76.3187 6.58795 76.3154 6.8716 76.2964 7.15067L78.8322 7.32357C78.8578 6.94737 78.862 6.5683 78.845 6.18662L76.3059 6.29947ZM76.2964 7.15067C76.2756 7.45516 76.2484 7.72839 76.2155 7.97166L78.7343 8.31203C78.7759 8.00428 78.8082 7.67436 78.8322 7.32357L76.2964 7.15067ZM94.7317 1.2168L95.9847 1.42867L96.2354 -0.0540365H94.7317V1.2168ZM91.6936 1.2168V-0.0540365H90.6214L90.4409 1.00283L91.6936 1.2168ZM89.8506 12.0065L88.598 11.7925L88.5962 11.8029L88.5946 11.8132L89.8506 12.0065ZM89.0241 14.2068L90.0378 14.9733L90.0438 14.9653L90.0497 14.9573L89.0241 14.2068ZM88.1752 14.944L88.7733 16.0654L88.7829 16.0602L88.7924 16.0549L88.1752 14.944ZM86.9801 15.1786L86.9121 16.4476L86.9187 16.4479L86.9801 15.1786ZM86.0084 14.8323L85.1251 15.7461L85.1406 15.761L85.1565 15.7754L86.0084 14.8323ZM85.5281 14.0393L86.7421 13.6635L86.738 13.6504L86.7337 13.6374L85.5281 14.0393ZM85.3605 13.0341H84.0897V13.0473L84.09 13.0605L85.3605 13.0341ZM85.4164 12.0065L84.1631 11.7963L84.1578 11.8279L84.1541 11.8597L85.4164 12.0065ZM87.2258 1.2168L88.4792 1.42698L88.7275 -0.0540365H87.2258V1.2168ZM84.1654 1.2168V-0.0540365H83.0932L82.9127 1.00283L84.1654 1.2168ZM82.3224 12.0065L81.0698 11.7925L81.0642 11.8251L81.0603 11.858L82.3224 12.0065ZM83.1602 15.9716L84.2013 15.2428L84.1963 15.2358L83.1602 15.9716ZM84.5898 17.2226L83.9933 18.3447L84.0017 18.3492L84.0102 18.3536L84.5898 17.2226ZM86.712 17.7029L86.7441 16.4324L86.7351 16.4323L86.712 17.7029ZM89.1023 17.3231L89.5635 18.5073L89.57 18.5047L89.1023 17.3231ZM90.9564 16.128L90.0709 15.2164L90.0643 15.2229L90.9564 16.128ZM92.9111 11.9841L91.658 11.7723L91.6561 11.7836L91.6544 11.7951L92.9111 11.9841ZM94.7317 -0.0540365H91.6936V2.48763H94.7317V-0.0540365ZM90.4409 1.00283L88.598 11.7925L91.1033 12.2204L92.9463 1.43077L90.4409 1.00283ZM88.5946 11.8132C88.5472 12.1214 88.4695 12.4342 88.3593 12.7524L90.7612 13.5838C90.9191 13.1275 91.035 12.666 91.1067 12.1997L88.5946 11.8132ZM88.3593 12.7524C88.2633 13.0298 88.1412 13.2615 87.9985 13.4564L90.0497 14.9573C90.3538 14.5416 90.5891 14.0808 90.7612 13.5838L88.3593 12.7524ZM88.0104 13.4404C87.8865 13.6043 87.7387 13.7328 87.5581 13.8331L88.7924 16.0549C89.282 15.783 89.7001 15.42 90.0378 14.9733L88.0104 13.4404ZM87.5772 13.8227C87.4844 13.8722 87.3238 13.9229 87.0415 13.9092L86.9187 16.4479C87.5598 16.479 88.1959 16.3733 88.7733 16.0654L87.5772 13.8227ZM87.0481 13.9096C86.9367 13.9036 86.8759 13.887 86.851 13.8782C86.8295 13.8705 86.8394 13.8705 86.8602 13.8892L85.1565 15.7754C85.6676 16.237 86.3039 16.415 86.9121 16.4476L87.0481 13.9096ZM86.8916 13.9186C86.8303 13.8594 86.7792 13.7834 86.7421 13.6635L84.3141 14.4151C84.4706 14.9208 84.7396 15.3734 85.1251 15.7461L86.8916 13.9186ZM86.7337 13.6374C86.6731 13.4556 86.6361 13.2481 86.6311 13.0076L84.09 13.0605C84.0999 13.5349 84.1746 13.9975 84.3225 14.4412L86.7337 13.6374ZM86.6314 13.0341C86.6314 12.712 86.6478 12.4189 86.6787 12.1533L84.1541 11.8597C84.1105 12.2345 84.0897 12.6264 84.0897 13.0341H86.6314ZM86.6697 12.2167L88.4792 1.42698L85.9725 1.00661L84.1631 11.7963L86.6697 12.2167ZM87.2258 -0.0540365H84.1654V2.48763H87.2258V-0.0540365ZM82.9127 1.00283L81.0698 11.7925L83.5751 12.2204L85.4181 1.43077L82.9127 1.00283ZM81.0603 11.858C80.9565 12.7402 80.9846 13.6001 81.1561 14.4304L83.6452 13.9163C83.5337 13.3765 83.5097 12.7918 83.5846 12.155L81.0603 11.858ZM81.1561 14.4304C81.3292 15.2687 81.6466 16.0351 82.124 16.7074L84.1963 15.2358C83.944 14.8805 83.755 14.4481 83.6452 13.9163L81.1561 14.4304ZM82.119 16.7004C82.6044 17.3938 83.2365 17.9424 83.9933 18.3447L85.1864 16.1005C84.7667 15.8774 84.4456 15.5919 84.2013 15.2428L82.119 16.7004ZM84.0102 18.3536C84.8126 18.7648 85.7187 18.9559 86.6889 18.9735L86.7351 16.4323C86.0672 16.4201 85.5585 16.291 85.1695 16.0916L84.0102 18.3536ZM86.68 18.9733C87.7067 18.9992 88.675 18.8534 89.5635 18.5073L88.6411 16.1389C88.1148 16.3439 87.4895 16.4512 86.7441 16.4325L86.68 18.9733ZM89.57 18.5047C90.4353 18.1622 91.1998 17.6726 91.8485 17.033L90.0643 15.2229C89.6706 15.611 89.199 15.9181 88.6346 16.1415L89.57 18.5047ZM91.8419 17.0395C92.4826 16.4171 92.9947 15.6797 93.3829 14.8415L91.0766 13.7733C90.8095 14.3499 90.4727 14.8261 90.0709 15.2164L91.8419 17.0395ZM93.3829 14.8415C93.7657 14.015 94.0249 13.1231 94.1678 12.1732L91.6544 11.7951C91.5441 12.528 91.3491 13.1849 91.0766 13.7733L93.3829 14.8415ZM94.1641 12.196L95.9847 1.42867L93.4786 1.00492L91.658 11.7723L94.1641 12.196ZM105.231 17.4795V18.7503H106.3L106.483 17.6971L105.231 17.4795ZM108.057 1.2168L109.309 1.43436L109.568 -0.0540365H108.057V1.2168ZM104.985 1.2168V-0.0540365H103.918L103.734 0.996927L104.985 1.2168ZM103.131 11.7719L101.896 12.0712L104.383 11.9918L103.131 11.7719ZM100.573 1.2168L101.808 0.917501L101.573 -0.0540365H100.573V1.2168ZM97.5464 1.2168V-0.0540365H96.4766L96.2942 1.00007L97.5464 1.2168ZM94.7317 17.4795L93.4795 17.2628L93.222 18.7503H94.7317V17.4795ZM97.8145 17.4795V18.7503H98.8834L99.0665 17.6972L97.8145 17.4795ZM99.6574 6.8797L100.892 6.57791L98.4054 6.66201L99.6574 6.8797ZM102.249 17.4795L101.014 17.7813L101.251 18.7503H102.249V17.4795ZM106.483 17.6971L109.309 1.43436L106.805 0.999232L103.979 17.2619L106.483 17.6971ZM108.057 -0.0540365H104.985V2.48763H108.057V-0.0540365ZM103.734 0.996927L101.879 11.552L104.383 11.9918L106.237 1.43667L103.734 0.996927ZM104.366 11.4726L101.808 0.917501L99.3382 1.51609L101.896 12.0712L104.366 11.4726ZM100.573 -0.0540365H97.5464V2.48763H100.573V-0.0540365ZM96.2942 1.00007L93.4795 17.2628L95.9839 17.6962L98.7986 1.43353L96.2942 1.00007ZM94.7317 18.7503H97.8145V16.2087H94.7317V18.7503ZM99.0665 17.6972L100.909 7.09739L98.4054 6.66201L96.5624 17.2618L99.0665 17.6972ZM98.4229 7.18149L101.014 17.7813L103.483 17.1777L100.892 6.57791L98.4229 7.18149ZM102.249 18.7503H105.231V16.2087H102.249V18.7503ZM108.18 17.4795L106.927 17.2628L106.67 18.7503H108.18V17.4795ZM112.58 17.4795L112.594 16.2087H112.58V17.4795ZM116.345 16.5078L115.726 15.3975L115.715 15.4037L115.704 15.41L116.345 16.5078ZM119.226 13.6484L118.139 12.99L118.133 13.0005L119.226 13.6484ZM120.03 11.9395L121.229 12.3632L121.23 12.3586L120.03 11.9395ZM120.5 10.0295L121.757 10.2152L121.758 10.2077L120.5 10.0295ZM120.689 8.68915L121.948 8.8674L121.95 8.85215L121.952 8.83685L120.689 8.68915ZM120.701 6.65631L119.436 6.78417L119.437 6.79199L119.438 6.7998L120.701 6.65631ZM120.265 4.81335L119.079 5.26957L119.083 5.27996L120.265 4.81335ZM119.517 3.47302L118.498 4.23256L118.502 4.23846L118.507 4.24431L119.517 3.47302ZM118.478 2.38959L119.276 1.40095L119.261 1.38867L119.246 1.37685L118.478 2.38959ZM116.892 1.56305L116.467 2.76087L116.476 2.76408L116.485 2.76715L116.892 1.56305ZM114.926 1.22797L114.952 -0.042597L114.941 -0.0428298L114.93 -0.0428619L114.926 1.22797ZM110.994 1.2168L110.998 -0.0540314L109.925 -0.0570793L109.742 1.00007L110.994 1.2168ZM113.642 3.76343L113.654 2.49265L112.574 2.48227L112.389 3.546L113.642 3.76343ZM114.803 3.7746L114.868 2.5054L114.842 2.50407L114.815 2.50382L114.803 3.7746ZM115.942 4.03149L115.406 5.18379L115.418 5.18895L115.429 5.19391L115.942 4.03149ZM116.758 4.60114L117.712 3.76224L117.699 3.74688L117.685 3.73196L116.758 4.60114ZM117.272 5.45001L116.09 5.91725L116.096 5.93403L116.104 5.95062L117.272 5.45001ZM117.562 6.45526L118.82 6.27187L118.818 6.25908L118.816 6.24634L117.562 6.45526ZM117.629 7.56104L116.358 7.53612L116.358 7.54858V7.56104H117.629ZM117.562 8.65564L118.821 8.82963L118.822 8.82146L118.823 8.81327L117.562 8.65564ZM117.372 10.0295L118.63 10.2124L118.631 10.2035L117.372 10.0295ZM117.104 11.2469L115.886 10.8859L115.883 10.8963L115.88 10.9068L117.104 11.2469ZM116.657 12.3751L115.535 11.7783L115.534 11.7805L116.657 12.3751ZM114.636 14.5308L114.045 13.4058L114.042 13.4069L114.636 14.5308ZM113.742 14.8658L114.03 16.1036L114.04 16.1013L114.05 16.0987L113.742 14.8658ZM112.714 14.9775L112.687 16.2481L112.701 16.2484H112.714V14.9775ZM111.698 14.9552L110.446 14.7378L110.193 16.1933L111.67 16.2257L111.698 14.9552ZM108.18 18.7503H112.58V16.2087H108.18V18.7503ZM112.567 18.7503C113.382 18.7588 114.169 18.6645 114.923 18.4605L114.259 16.007C113.747 16.1456 113.194 16.215 112.594 16.2087L112.567 18.7503ZM114.923 18.4605C115.658 18.2616 116.347 17.9777 116.985 17.6055L115.704 15.41C115.27 15.6633 114.79 15.8634 114.259 16.007L114.923 18.4605ZM116.963 17.618C117.656 17.2322 118.286 16.7547 118.852 16.1889L117.054 14.3917C116.652 14.7939 116.21 15.1281 115.726 15.3975L116.963 17.618ZM118.852 16.1889C119.419 15.6217 119.908 14.99 120.32 14.2963L118.133 13.0005C117.829 13.5131 117.47 13.976 117.054 14.3917L118.852 16.1889ZM120.313 14.3067C120.681 13.7004 120.985 13.0517 121.229 12.3632L118.832 11.5157C118.644 12.0484 118.412 12.539 118.139 12.99L120.313 14.3067ZM121.23 12.3586C121.473 11.6639 121.648 10.949 121.757 10.2152L119.242 9.84376C119.157 10.4205 119.02 10.979 118.831 11.5203L121.23 12.3586ZM121.758 10.2077L121.948 8.8674L119.431 8.51089L119.241 9.85123L121.758 10.2077ZM121.952 8.83685C122.044 8.04676 122.05 7.27123 121.963 6.51282L119.438 6.7998C119.501 7.35194 119.499 7.93163 119.427 8.54144L121.952 8.83685ZM121.965 6.52845C121.887 5.76048 121.717 5.03101 121.447 4.34675L119.083 5.27996C119.26 5.72753 119.38 6.2267 119.436 6.78417L121.965 6.52845ZM121.451 4.35715C121.222 3.761 120.913 3.20801 120.527 2.70174L118.507 4.24431C118.746 4.55712 118.936 4.89769 119.079 5.26956L121.451 4.35715ZM120.536 2.71349C120.168 2.22091 119.749 1.78228 119.276 1.40095L117.679 3.37822C117.982 3.62238 118.254 3.90604 118.498 4.23256L120.536 2.71349ZM119.246 1.37685C118.666 0.937234 118.013 0.600131 117.298 0.358945L116.485 2.76715C116.962 2.92807 117.367 3.14199 117.71 3.40232L119.246 1.37685ZM117.316 0.365227C116.582 0.104839 115.789 -0.0253362 114.952 -0.042597L114.9 2.49853C115.507 2.51105 116.025 2.60427 116.467 2.76087L117.316 0.365227ZM114.93 -0.0428619L110.998 -0.0540314L110.991 2.48763L114.922 2.49879L114.93 -0.0428619ZM109.742 1.00007L106.927 17.2628L109.432 17.6962L112.247 1.43353L109.742 1.00007ZM113.629 5.0342L114.791 5.04537L114.815 2.50382L113.654 2.49265L113.629 5.0342ZM114.739 5.04379C115.053 5.0598 115.266 5.11843 115.406 5.18379L116.478 2.8792C115.979 2.64671 115.431 2.53407 114.868 2.5054L114.739 5.04379ZM115.429 5.19391C115.604 5.27141 115.732 5.36529 115.831 5.47031L117.685 3.73196C117.337 3.36042 116.921 3.07453 116.456 2.86908L115.429 5.19391ZM115.803 5.44003C115.918 5.5702 116.014 5.72589 116.09 5.91725L118.453 4.98278C118.276 4.53376 118.03 4.12353 117.712 3.76224L115.803 5.44003ZM116.104 5.95062C116.195 6.16405 116.265 6.40058 116.308 6.66418L118.816 6.24634C118.74 5.7951 118.616 5.36146 118.44 4.94941L116.104 5.95062ZM116.304 6.63865C116.346 6.92367 116.365 7.22247 116.358 7.53612L118.9 7.58595C118.908 7.14008 118.882 6.70169 118.82 6.27187L116.304 6.63865ZM116.358 7.56104C116.358 7.88242 116.339 8.1946 116.301 8.49801L118.823 8.81327C118.874 8.40184 118.9 7.98428 118.9 7.56104H116.358ZM116.303 8.48165L116.113 9.85549L118.631 10.2035L118.821 8.82963L116.303 8.48165ZM116.115 9.84656C116.064 10.1951 115.988 10.5414 115.886 10.8859L118.323 11.608C118.459 11.1483 118.561 10.683 118.63 10.2124L116.115 9.84656ZM115.88 10.9068C115.791 11.2246 115.676 11.514 115.535 11.7783L117.779 12.9719C118.011 12.5361 118.193 12.0735 118.329 11.5871L115.88 10.9068ZM115.534 11.7805C115.306 12.2106 115.072 12.5457 114.837 12.8017L116.713 14.5174C117.119 14.0734 117.472 13.5523 117.78 12.9697L115.534 11.7805ZM114.837 12.8017C114.621 13.0383 114.36 13.2401 114.045 13.4058L115.227 15.6558C115.79 15.3598 116.289 14.9807 116.713 14.5174L114.837 12.8017ZM114.042 13.4069C113.874 13.4956 113.674 13.573 113.434 13.633L114.05 16.0987C114.466 15.9948 114.861 15.8488 115.229 15.6547L114.042 13.4069ZM113.454 13.628C113.238 13.6783 112.993 13.7067 112.714 13.7067V16.2484C113.166 16.2484 113.606 16.2023 114.03 16.1036L113.454 13.628ZM112.742 13.707L111.726 13.6847L111.67 16.2257L112.687 16.2481L112.742 13.707ZM112.95 15.1726L114.894 3.98086L112.389 3.546L110.446 14.7378L112.95 15.1726Z" fill="white"/>
</svg>
