<svg width="62" height="18" viewBox="0 0 62 18" fill="none" xmlns="http://www.w3.org/2000/svg">
<g clip-path="url(#clip0_127:5432)">
<path d="M5.75 9C5.75 9.46413 5.93438 9.90925 6.26256 10.2374C6.59075 10.5656 7.03587 10.75 7.5 10.75C7.96413 10.75 8.40925 10.5656 8.73744 10.2374C9.06563 9.90925 9.25 9.46413 9.25 9C9.25 8.53587 9.06563 8.09075 8.73744 7.76256C8.40925 7.43437 7.96413 7.25 7.5 7.25C7.03587 7.25 6.59075 7.43437 6.26256 7.76256C5.93438 8.09075 5.75 8.53587 5.75 9Z" fill="black"/>
<path d="M11 2C11.2321 2 11.4546 2.09219 11.6187 2.25628C11.7828 2.42038 11.875 2.64294 11.875 2.875L11.875 15.125C11.875 15.3571 11.7828 15.5796 11.6187 15.7437C11.4546 15.9078 11.2321 16 11 16L4 16C3.76794 16 3.54538 15.9078 3.38128 15.7437C3.21719 15.5796 3.125 15.3571 3.125 15.125L3.125 2.875C3.125 2.64294 3.21719 2.42038 3.38128 2.25628C3.54538 2.09219 3.76794 2 4 2L11 2ZM11 4.625C10.5359 4.625 10.0908 4.44063 9.76256 4.11244C9.43437 3.78425 9.25 3.33913 9.25 2.875L5.75 2.875C5.75 3.33913 5.56563 3.78425 5.23744 4.11244C4.90925 4.44063 4.46413 4.625 4 4.625L4 13.375C4.46413 13.375 4.90925 13.5594 5.23744 13.8876C5.56562 14.2158 5.75 14.6609 5.75 15.125L9.25 15.125C9.25 14.6609 9.43437 14.2158 9.76256 13.8876C10.0908 13.5594 10.5359 13.375 11 13.375L11 4.625Z" fill="black"/>
</g>
<path d="M22.4863 6.07715H20.3086V12H18.8438V6.07715H16.6953V4.89062H22.4863V6.07715ZM24.7227 12H23.3066V6.7168H24.7227V12ZM23.2236 5.34961C23.2236 5.13802 23.2936 4.96387 23.4336 4.82715C23.5768 4.69043 23.7705 4.62207 24.0146 4.62207C24.2555 4.62207 24.4476 4.69043 24.5908 4.82715C24.734 4.96387 24.8057 5.13802 24.8057 5.34961C24.8057 5.56445 24.7324 5.74023 24.5859 5.87695C24.4427 6.01367 24.2523 6.08203 24.0146 6.08203C23.777 6.08203 23.585 6.01367 23.4385 5.87695C23.2952 5.74023 23.2236 5.56445 23.2236 5.34961ZM28.3213 12.0977C27.5465 12.0977 26.915 11.86 26.4268 11.3848C25.9417 10.9095 25.6992 10.2764 25.6992 9.48535V9.34863C25.6992 8.81803 25.8018 8.3444 26.0068 7.92773C26.2119 7.50781 26.5016 7.18555 26.876 6.96094C27.2536 6.73307 27.6833 6.61914 28.165 6.61914C28.8877 6.61914 29.4557 6.84701 29.8691 7.30273C30.2858 7.75846 30.4941 8.40462 30.4941 9.24121V9.81738H27.1299C27.1755 10.1624 27.3122 10.4391 27.54 10.6475C27.7712 10.8558 28.0625 10.96 28.4141 10.96C28.9577 10.96 29.3825 10.763 29.6885 10.3691L30.3818 11.1455C30.1702 11.445 29.8838 11.6794 29.5225 11.8486C29.1611 12.0146 28.7607 12.0977 28.3213 12.0977ZM28.1602 7.76172C27.8802 7.76172 27.6523 7.85612 27.4766 8.04492C27.304 8.23372 27.1934 8.50391 27.1445 8.85547H29.1074V8.74316C29.1009 8.43066 29.0163 8.18978 28.8535 8.02051C28.6908 7.84798 28.4596 7.76172 28.1602 7.76172ZM29.791 6.01855H28.7412L28.0039 5.39844L27.2666 6.01855H26.2119L27.6035 4.89062H28.3994L29.791 6.01855ZM26.5732 5.35938H25.7578L24.6543 4.03613H25.7773L26.5732 5.35938ZM32.5986 6.7168L32.6426 7.32715C33.0202 6.85514 33.5264 6.61914 34.1611 6.61914C34.721 6.61914 35.1377 6.78353 35.4111 7.1123C35.6846 7.44108 35.8245 7.93262 35.8311 8.58691V12H34.4199V8.62109C34.4199 8.32161 34.3548 8.10514 34.2246 7.97168C34.0944 7.83496 33.8779 7.7666 33.5752 7.7666C33.1781 7.7666 32.8802 7.93587 32.6816 8.27441V12H31.2705V6.7168H32.5986ZM40.7188 6.7168L40.7627 7.30762C41.137 6.84863 41.6432 6.61914 42.2812 6.61914C42.9616 6.61914 43.4287 6.8877 43.6826 7.4248C44.0537 6.8877 44.5827 6.61914 45.2695 6.61914C45.8424 6.61914 46.2689 6.78678 46.5488 7.12207C46.8288 7.4541 46.9688 7.9554 46.9688 8.62598V12H45.5527V8.63086C45.5527 8.33138 45.4941 8.11328 45.377 7.97656C45.2598 7.83659 45.0531 7.7666 44.7568 7.7666C44.3337 7.7666 44.0407 7.96842 43.8779 8.37207L43.8828 12H42.4717V8.63574C42.4717 8.32975 42.4115 8.1084 42.291 7.97168C42.1706 7.83496 41.9655 7.7666 41.6758 7.7666C41.2754 7.7666 40.9857 7.93262 40.8066 8.26465V12H39.3955V6.7168H40.7188ZM51.1191 12C51.054 11.873 51.0068 11.7152 50.9775 11.5264C50.6357 11.9072 50.1914 12.0977 49.6445 12.0977C49.127 12.0977 48.6973 11.9479 48.3555 11.6484C48.0169 11.349 47.8477 10.9714 47.8477 10.5156C47.8477 9.95573 48.0544 9.52604 48.4678 9.22656C48.8844 8.92708 49.485 8.77572 50.2695 8.77246H50.9189V8.46973C50.9189 8.22559 50.8555 8.03027 50.7285 7.88379C50.6048 7.7373 50.4079 7.66406 50.1377 7.66406C49.9001 7.66406 49.7129 7.72103 49.5762 7.83496C49.4427 7.94889 49.376 8.10514 49.376 8.30371H47.9648C47.9648 7.99772 48.0592 7.71452 48.248 7.4541C48.4368 7.19368 48.7038 6.99023 49.0488 6.84375C49.3939 6.69401 49.7812 6.61914 50.2109 6.61914C50.862 6.61914 51.3779 6.78353 51.7588 7.1123C52.1429 7.43783 52.335 7.89681 52.335 8.48926V10.7793C52.3382 11.2806 52.4082 11.6598 52.5449 11.917V12H51.1191ZM49.9521 11.0186C50.1605 11.0186 50.3525 10.973 50.5283 10.8818C50.7041 10.7874 50.8343 10.6621 50.9189 10.5059V9.59766H50.3916C49.6852 9.59766 49.3092 9.8418 49.2637 10.3301L49.2588 10.4131C49.2588 10.5889 49.3206 10.7337 49.4443 10.8477C49.568 10.9616 49.7373 11.0186 49.9521 11.0186ZM51.9004 4.54883C51.9004 4.98177 51.7441 5.33171 51.4316 5.59863C51.1224 5.86556 50.7155 5.99902 50.2109 5.99902C49.7064 5.99902 49.2979 5.86719 48.9854 5.60352C48.6761 5.33984 48.5215 4.98828 48.5215 4.54883H49.5225C49.5225 4.75391 49.5827 4.91341 49.7031 5.02734C49.8268 5.13802 49.9961 5.19336 50.2109 5.19336C50.4225 5.19336 50.5885 5.13802 50.709 5.02734C50.8294 4.91341 50.8896 4.75391 50.8896 4.54883H51.9004ZM49.0488 13.0645C49.0488 12.8691 49.1221 12.708 49.2686 12.5811C49.415 12.4541 49.6038 12.3906 49.835 12.3906C50.0693 12.3906 50.2598 12.4541 50.4062 12.5811C50.5527 12.708 50.626 12.8691 50.626 13.0645C50.626 13.2565 50.5527 13.4176 50.4062 13.5479C50.263 13.6781 50.0726 13.7432 49.835 13.7432C49.5973 13.7432 49.4069 13.6781 49.2637 13.5479C49.1204 13.4176 49.0488 13.2565 49.0488 13.0645ZM55.1084 5.41797V6.7168H56.0117V7.75195H55.1084V10.3887C55.1084 10.584 55.1458 10.724 55.2207 10.8086C55.2956 10.8932 55.4388 10.9355 55.6504 10.9355C55.8066 10.9355 55.945 10.9242 56.0654 10.9014V11.9707C55.7887 12.0553 55.5039 12.0977 55.2109 12.0977C54.2214 12.0977 53.7168 11.598 53.6973 10.5986V7.75195H52.9258V6.7168H53.6973V5.41797H55.1084Z" fill="black"/>
<defs>
<clipPath id="clip0_127:5432">
<rect width="14" height="14" fill="white" transform="translate(14.5 2) rotate(90)"/>
</clipPath>
</defs>
</svg>
